<svg width="30" height="20" viewBox="0 0 30 20" fill="none" xmlns="http://www.w3.org/2000/svg">
<path d="M12.0833 8.8616C13.7396 8.02912 14.6042 6.76943 14.6042 4.80871C14.6042 0.942025 11.8646 0 8.70313 0H0V19.4101H8.94792C12.3021 19.4101 15.4531 17.7177 15.4531 13.7744C15.4531 11.3372 14.3542 9.53526 12.0833 8.8616V8.8616ZM4.05729 3.31352H7.86458C9.32812 3.31352 10.6458 3.74619 10.6458 5.53166C10.6458 7.1802 9.61979 7.8429 8.17187 7.8429H4.05729V3.31352V3.31352ZM8.39583 16.113H4.05729V10.7676H8.47917C10.2656 10.7676 11.3958 11.5508 11.3958 13.5389C11.3958 15.4996 10.0469 16.113 8.39583 16.113V16.113ZM27.0677 2.93013H19.5833V1.0187H27.0677V2.93013V2.93013ZM30 12.5859C30 8.42893 27.6875 4.96206 23.4948 4.96206C19.4219 4.96206 16.6562 8.18247 16.6562 12.3997C16.6562 16.7757 19.276 19.777 23.4948 19.777C26.6875 19.777 28.7552 18.2654 29.75 15.0505H26.5104C26.1615 16.2499 24.724 16.8852 23.6094 16.8852C21.4583 16.8852 20.3281 15.5598 20.3281 13.3088H29.9688C29.9844 13.0788 30 12.8324 30 12.5859ZM20.3333 10.8771C20.4531 9.03139 21.6198 7.87576 23.3802 7.87576C25.224 7.87576 26.151 9.01496 26.3073 10.8771H20.3333Z" fill="black"/>
</svg>
