<svg width="30" height="32" viewBox="0 0 30 32" fill="none" xmlns="http://www.w3.org/2000/svg">
<path d="M15 0C6.72895 0 0 7.07591 0 15.7734C0 24.4709 6.72895 31.5469 15 31.5469C23.271 31.5469 30 24.4709 30 15.7734C30 7.07591 23.271 0 15 0ZM24.9175 7.27397C26.702 9.56658 27.7826 12.4866 27.8108 15.6666C27.3884 15.5727 23.1524 14.6692 18.8893 15.233C18.5414 14.34 18.213 13.5543 17.7633 12.5862C22.5004 10.5524 24.6474 7.65819 24.9175 7.27397V7.27397ZM23.4932 5.71596C23.2628 6.06113 21.3341 8.78707 16.7782 10.5828C14.6787 6.52645 12.3517 3.19418 11.9976 2.69554C16.0606 1.66562 20.3423 2.77631 23.4932 5.71596V5.71596ZM9.55288 3.60118C9.89068 4.08831 12.1802 7.42471 14.3031 11.3931C8.30994 13.0666 3.03133 13.0425 2.45831 13.0346C3.28911 8.85379 5.96843 5.37906 9.55288 3.60118ZM2.1877 15.794C2.1877 15.6562 2.1903 15.5191 2.19423 15.3823C2.7548 15.3944 8.96359 15.4785 15.3619 13.4649C15.7287 14.2197 16.0791 14.986 16.4007 15.7514C11.7677 17.1236 7.55831 21.0639 5.48147 24.8024C3.43512 22.4139 2.1877 19.2544 2.1877 15.794ZM7.13571 26.4228C8.47403 23.5459 12.1061 19.8322 17.2715 17.9792C19.0703 22.8946 19.8142 27.0141 20.0047 28.1961C15.8851 30.0414 10.9312 29.5352 7.13571 26.4228V26.4228ZM22.1587 26.9627C22.0274 26.1431 21.3454 22.1991 19.6697 17.3566C23.6846 16.6808 27.212 17.7871 27.6503 17.9325C27.0792 21.6813 25.033 24.9189 22.1587 26.9627Z" fill="black"/>
</svg>
