<svg width="52" height="34" viewBox="0 0 52 34" fill="none" xmlns="http://www.w3.org/2000/svg">
<path d="M6.51839 0.960137L0.962402 17.1605L7.58443 19.4316L13.1404 3.23119L6.51839 0.960137Z" fill="#DCA052"/>
<path d="M17.9506 2.33191L17.3064 2.6487C16.5039 3.0394 15.5641 3.0922 14.7299 2.79653L13.6528 2.41639C13.5895 2.37415 13.5261 2.34247 13.4628 2.32135L6.83136 0.0510514C6.33506 -0.117901 5.78596 0.146087 5.61701 0.642386L0.0521257 16.8513C-0.0323507 17.0942 -0.0112316 17.3582 0.0943639 17.5799C0.199959 17.8017 0.400591 17.9812 0.64346 18.0656L7.2643 20.3359C7.36989 20.3676 7.47549 20.3887 7.57052 20.3887C7.97179 20.3887 8.34137 20.1353 8.47865 19.7446L13.7267 4.4755L14.0858 4.60222C15.4057 5.06684 16.884 4.98236 18.1512 4.36991L18.7953 4.05312C19.5873 3.66242 20.5165 3.60962 21.3507 3.89473L33.5259 8.08687C33.3992 8.59373 33.1457 9.19562 32.6811 9.52297C32.1637 9.88199 31.3929 9.88199 30.3791 9.53353L24.9515 7.67505C24.6981 7.59057 24.4236 7.61169 24.1913 7.7384C23.9589 7.86512 23.79 8.08687 23.7161 8.3403C23.7055 8.37197 22.9558 11.1808 20.5588 12.4691C19.0488 13.2822 17.1692 13.3138 14.9622 12.5641C14.4659 12.3952 13.9168 12.6592 13.7479 13.1555C13.5789 13.6517 13.8429 14.2008 14.3392 14.3698C15.6063 14.8027 16.7996 15.0245 17.9083 15.0245C19.1966 15.0245 20.3793 14.7394 21.4563 14.1586C23.5999 13.0076 24.7087 10.9907 25.2155 9.78696L29.7456 11.3392C31.3612 11.8989 32.7128 11.8144 33.7582 11.0858C35.4372 9.92423 35.5216 7.56945 35.5322 7.46385C35.5428 7.04147 35.2788 6.67189 34.8881 6.53461L21.9632 2.07848C20.6644 1.63498 19.1966 1.73002 17.9506 2.33191ZM6.98975 18.2135L2.17459 16.5662L7.1059 2.17352L11.9211 3.82081L6.98975 18.2135Z" fill="white"/>
<path d="M36.9574 4.14558L44.4844 19.5284L50.7721 16.4518L43.2451 1.06893L36.9574 4.14558Z" fill="#DCA052"/>
<path d="M43.3146 19.301L41.0443 21.3917C38.9852 23.2819 36.6621 24.8764 34.1489 26.1013L22.1005 31.9935C21.5725 32.2575 20.9284 32.0358 20.6644 31.4972C20.4004 30.9693 20.6221 30.3251 21.1607 30.0611L21.3085 29.9872L27.8977 26.7666C28.3729 26.5342 28.5735 25.964 28.3412 25.4889C28.1089 25.0137 27.5387 24.813 27.0635 25.0453L20.4743 28.266L17.1586 29.8922C16.6306 30.1562 15.9865 29.9344 15.7225 29.3959C15.5958 29.1425 15.5747 28.8468 15.6697 28.5828C15.7648 28.3083 15.9548 28.0971 16.2083 27.9703L18.7109 26.7454L25.8702 23.2397C26.3454 23.0074 26.5461 22.4371 26.3137 21.962C26.0814 21.4868 25.5112 21.2862 25.036 21.5185L17.8661 25.0348L17.5916 25.1721L14.1703 26.851C13.9168 26.9777 13.6212 26.9989 13.3572 26.9038C13.0826 26.8088 12.8714 26.6187 12.7447 26.3653C12.4807 25.8373 12.7025 25.1932 13.241 24.9292L14.4237 24.3484L16.8418 23.1658L17.5176 22.8384L23.072 20.114C23.5471 19.8817 23.7478 19.3115 23.5155 18.8363C23.2832 18.3612 22.7129 18.1605 22.2378 18.3928L16.2188 21.3389L13.5895 22.6272C13.0615 22.8806 12.4174 22.6695 12.1534 22.1309C12.0267 21.8775 12.0056 21.5818 12.1006 21.3178C12.1956 21.0433 12.3857 20.8321 12.6391 20.7054L17.2325 18.4562C17.7077 18.2239 17.9083 17.6537 17.676 17.1785C17.4437 16.7033 16.8735 16.5027 16.3983 16.735L11.8049 18.9842C11.0869 19.3326 10.5483 19.9451 10.2949 20.6948C10.0415 21.4445 10.0837 22.2576 10.4322 22.9757C10.6539 23.4192 10.9707 23.7888 11.3509 24.0633C10.6856 24.9398 10.5167 26.1435 11.0341 27.1995C11.3825 27.9175 11.995 28.4561 12.7447 28.7095C13.0615 28.8151 13.3783 28.8679 13.6951 28.8679C13.6845 29.3431 13.7796 29.8183 14.0013 30.2512C14.5187 31.3072 15.5852 31.9196 16.6834 31.9196C17.1269 31.9196 17.5704 31.8246 17.9928 31.6134L18.6686 31.286C18.7003 31.6451 18.7953 31.9935 18.9537 32.3314C19.4712 33.3874 20.5377 33.9999 21.6359 33.9999C22.0794 33.9999 22.5229 33.9048 22.9453 33.6936L34.9937 27.8014C37.6758 26.492 40.1468 24.8025 42.3431 22.7856L45.0358 20.3041L51.2026 17.2841C51.6778 17.0518 51.8784 16.4816 51.6461 16.0064L44.1066 0.642235C43.9904 0.409925 43.8004 0.240972 43.5575 0.156496C43.3146 0.0720194 43.0506 0.0931386 42.8289 0.198734L36.5354 3.27156C36.0602 3.50387 35.8596 4.07409 36.0919 4.54927L43.3146 19.301ZM42.8078 2.34232L49.492 16.0169L44.9197 18.2556L38.2355 4.58095L42.8078 2.34232Z" fill="white"/>
</svg>
