<svg width="30" height="32" viewBox="0 0 30 32" fill="none" xmlns="http://www.w3.org/2000/svg">
<path d="M15.0033 7.68353C10.7468 7.68353 7.31344 11.2939 7.31344 15.77C7.31344 20.246 10.7468 23.8564 15.0033 23.8564C19.2599 23.8564 22.6933 20.246 22.6933 15.77C22.6933 11.2939 19.2599 7.68353 15.0033 7.68353ZM15.0033 21.0272C12.2527 21.0272 10.0039 18.6695 10.0039 15.77C10.0039 12.8704 12.246 10.5127 15.0033 10.5127C17.7607 10.5127 20.0028 12.8704 20.0028 15.77C20.0028 18.6695 17.754 21.0272 15.0033 21.0272ZM24.8015 7.35275C24.8015 8.40138 23.9983 9.23888 23.0078 9.23888C22.0106 9.23888 21.2142 8.39435 21.2142 7.35275C21.2142 6.31116 22.0173 5.46662 23.0078 5.46662C23.9983 5.46662 24.8015 6.31116 24.8015 7.35275ZM29.8946 9.26703C29.7808 6.74046 29.232 4.50244 27.4718 2.65853C25.7184 0.814626 23.5901 0.237526 21.1874 0.110845C18.7111 -0.0369485 11.2889 -0.0369485 8.8126 0.110845C6.41662 0.230488 4.28834 0.807589 2.52817 2.65149C0.767987 4.4954 0.225878 6.73342 0.10541 9.26C-0.0351366 11.864 -0.0351366 19.6689 0.10541 22.2729C0.219186 24.7995 0.767987 27.0375 2.52817 28.8814C4.28834 30.7253 6.40993 31.3024 8.8126 31.4291C11.2889 31.5769 18.7111 31.5769 21.1874 31.4291C23.5901 31.3094 25.7184 30.7324 27.4718 28.8814C29.2253 27.0375 29.7741 24.7995 29.8946 22.2729C30.0351 19.6689 30.0351 11.871 29.8946 9.26703ZM26.6955 25.0669C26.1735 26.4463 25.1629 27.509 23.8444 28.065C21.8701 28.8884 17.1852 28.6984 15.0033 28.6984C12.8215 28.6984 8.12995 28.8814 6.1623 28.065C4.85053 27.5161 3.83993 26.4534 3.31121 25.0669C2.52817 22.9908 2.70887 18.0643 2.70887 15.77C2.70887 13.4756 2.53486 8.54214 3.31121 6.47302C3.83324 5.09361 4.84384 4.0309 6.1623 3.47492C8.13664 2.65149 12.8215 2.84152 15.0033 2.84152C17.1852 2.84152 21.8767 2.65853 23.8444 3.47492C25.1562 4.02387 26.1668 5.08658 26.6955 6.47302C27.4785 8.54918 27.2978 13.4756 27.2978 15.77C27.2978 18.0643 27.4785 22.9978 26.6955 25.0669Z" fill="black"/>
</svg>
