<svg width="31" height="50" viewBox="0 0 31 50" fill="none" xmlns="http://www.w3.org/2000/svg">
<path d="M19.0533 35.7536C19.9856 37.4387 20.4518 39.4914 20.4518 41.9117V44.8529H19.0533V46.3235C19.0533 46.5226 18.8821 46.6949 18.5398 46.8405C18.1975 46.986 17.7859 47.0588 17.3052 47.0588C16.9556 47.0588 16.5987 47.0051 16.2345 46.8979C16.2054 47.7864 16.1289 48.5255 16.005 49.1153C15.8812 49.7051 15.7319 49.9999 15.5571 49.9999C15.3823 49.9999 15.233 49.7051 15.1091 49.1153C14.9853 48.5255 14.9088 47.7864 14.8797 46.8979C14.5155 47.0051 14.1586 47.0588 13.809 47.0588C13.3283 47.0588 12.9167 46.986 12.5744 46.8405C12.2321 46.6949 12.0609 46.5226 12.0609 46.3235V44.8529H10.6624V41.9117C10.6624 39.4914 11.1286 37.4387 12.0609 35.7536L12.0609 10.1792C12.1629 9.53581 12.294 8.7201 12.4542 7.73205C12.6145 6.744 12.7164 6.12742 12.7601 5.88232C12.9787 4.51897 13.2736 3.37007 13.6451 2.43564C14.0166 1.5012 14.3626 0.861649 14.683 0.51698C15.0035 0.172311 15.2949 -2.36034e-05 15.5571 -2.36034e-05C15.8193 -2.36034e-05 16.1107 0.172311 16.4311 0.51698C16.7516 0.861649 17.0976 1.5012 17.4691 2.43564C17.8406 3.37007 18.1355 4.51897 18.3541 5.88232C18.3978 6.12742 18.4997 6.744 18.66 7.73205C18.8202 8.7201 18.9513 9.53581 19.0533 10.1792L19.0533 35.7536ZM13.5468 10.0413C14.0712 9.22944 14.7413 8.8235 15.5571 8.8235C16.3729 8.8235 17.043 9.22944 17.5674 10.0413L18.2229 8.18012C17.5237 7.13845 16.6351 6.61762 15.5571 6.61762C14.4791 6.61762 13.5905 7.13845 12.8912 8.18012L13.5468 10.0413ZM19.4029 35.6387L19.4029 12.3161C19.9565 15.6403 20.5392 19.1329 21.151 22.7941C21.151 23.6672 21.3258 24.5327 21.6754 25.3906C22.0251 26.2484 22.3747 26.8841 22.7243 27.2978L23.2487 27.9411L29.5419 34.5588C29.9206 34.9571 30.2484 35.497 30.5252 36.1787C30.802 36.8604 30.9404 37.5459 30.9404 38.2352V40.4411L20.8014 42.5781V41.9117C20.8014 39.5067 20.3352 37.4157 19.4029 35.6387ZM10.3128 41.9117V42.5781L0.173828 40.4411L0.173828 38.2352C0.173828 37.5306 0.312219 36.8412 0.589002 36.1672C0.865784 35.4932 1.19355 34.9571 1.57231 34.5588L7.86546 27.9411C7.92373 27.8799 8.00021 27.7956 8.0949 27.6884C8.18959 27.5811 8.35712 27.3475 8.59748 26.9875C8.83784 26.6276 9.04907 26.2561 9.23117 25.8731C9.41326 25.4902 9.58079 25.0191 9.73374 24.46C9.8867 23.9008 9.96318 23.3455 9.96318 22.7941L11.7113 12.3161L11.7113 35.6387C10.779 37.4157 10.3128 39.5067 10.3128 41.9117Z" fill="#F5547E"/>
</svg>
