<svg width="600" height="587" viewBox="0 0 600 587" fill="none" xmlns="http://www.w3.org/2000/svg">
<g clip-path="url(#clip0_11_271)">
<g opacity="0.99">
<g opacity="0.99">
<path opacity="0.99" d="M512.144 501.033C629.302 386.414 629.302 200.58 512.145 85.9612C394.987 -28.6577 205.038 -28.6577 87.8803 85.9612C-29.277 200.58 -29.2769 386.414 87.8804 501.033C205.038 615.652 394.987 615.652 512.144 501.033Z" fill="#200B46"/>
<path opacity="0.99" d="M512.144 501.033C629.302 386.414 629.302 200.58 512.145 85.9612C394.987 -28.6577 205.038 -28.6577 87.8804 85.9612C-29.277 200.58 -29.2769 386.414 87.8804 501.033C205.038 615.652 394.987 615.652 512.144 501.033Z" fill="#200B46"/>
<path opacity="0.99" d="M346.481 99.8224L386.135 124.767C386.67 125.104 387.133 125.541 387.496 126.053C387.859 126.564 388.115 127.141 388.251 127.749C388.386 128.358 388.398 128.987 388.284 129.6C388.171 130.213 387.936 130.798 387.592 131.322C387.248 131.846 386.801 132.298 386.278 132.653C385.755 133.009 385.166 133.259 384.544 133.392C383.922 133.524 383.279 133.535 382.653 133.425C382.026 133.314 381.428 133.084 380.892 132.747C380.635 132.58 380.391 132.393 380.164 132.188L346.024 100.381C345.99 100.349 345.962 100.31 345.943 100.266C345.925 100.223 345.915 100.177 345.915 100.13C345.915 100.083 345.925 100.036 345.943 99.9932C345.962 99.9499 345.99 99.9108 346.024 99.8783C346.082 99.8177 346.159 99.7788 346.242 99.7686C346.326 99.7583 346.411 99.7774 346.481 99.8224Z" fill="#462A93"/>
<path opacity="0.99" d="M0.000233633 284.126C0.000233633 436.296 134.286 559.607 300 559.607C465.714 559.607 599.999 436.296 599.999 284.126C600.083 233.481 584.894 183.803 556.114 140.6C537.228 145.218 522.985 158.966 520.128 185.202C465.842 169.46 420.128 221.933 448.7 266.534C417.271 258.664 394.414 284.9 405.843 311.136C354.414 261.287 345.843 347.867 305.843 339.996C285.843 334.749 285.843 300.642 265.843 292.771C237.271 284.9 222.986 313.76 197.271 308.512C154.414 300.642 177.271 235.051 160.129 203.567C140.286 161.038 94.8858 138.856 46.3145 136.967C15.9639 180.983 -0.101243 232.028 0.000233633 284.126Z" fill="#30156B"/>
<path opacity="0.99" d="M100.762 120.323C100.762 120.323 100.419 124.879 96.3479 124.879C96.3479 124.879 100.833 125.48 100.862 129.715C100.862 129.715 101.047 125.257 105.233 124.977C105.233 124.977 100.762 124.208 100.762 120.323Z" fill="white"/>
<path opacity="0.99" d="M256.961 100.619C256.961 100.619 256.704 104.169 253.519 104.169C254.469 104.284 255.347 104.728 255.993 105.419C256.64 106.111 257.013 107.005 257.047 107.942C257.047 107.942 257.19 104.462 260.446 104.239C260.446 104.239 256.961 103.638 256.961 100.619Z" fill="white"/>
<path opacity="0.99" d="M216.965 44.7196C216.965 44.7196 216.708 48.2692 213.522 48.2692C214.473 48.385 215.35 48.8284 215.997 49.5199C216.644 50.2114 217.017 51.1058 217.051 52.0424C217.051 52.0424 217.194 48.5627 220.45 48.3391C220.45 48.3391 216.965 47.7382 216.965 44.7196Z" fill="white"/>
<path opacity="0.99" d="M456.671 449.99C456.671 449.99 456.414 453.54 453.243 453.54C454.191 453.659 455.065 454.104 455.708 454.795C456.352 455.486 456.724 456.379 456.757 457.313C456.757 457.313 456.899 453.834 460.156 453.61C460.156 453.61 456.671 453.009 456.671 449.99Z" fill="white"/>
<path opacity="0.99" d="M380.164 274.732C380.164 274.732 379.907 278.281 376.736 278.281C377.682 278.397 378.556 278.839 379.2 279.528C379.844 280.217 380.216 281.108 380.25 282.041C380.25 282.041 380.392 278.575 383.649 278.351C383.649 278.351 380.164 277.75 380.164 274.732Z" fill="white"/>
<path opacity="0.99" d="M190.982 271.112C190.982 271.112 190.725 274.662 187.553 274.662C188.502 274.781 189.376 275.225 190.019 275.917C190.663 276.608 191.034 277.501 191.067 278.435C191.067 278.435 191.21 274.955 194.467 274.732C194.467 274.732 190.982 274.131 190.982 271.112Z" fill="white"/>
<path opacity="0.99" d="M156.671 273.041C156.671 273.041 156.156 280.14 149.814 280.14C149.814 280.14 156.785 281.062 156.842 287.672C156.842 287.672 157.128 280.685 163.641 280.28C163.641 280.28 156.671 279.078 156.671 273.041Z" fill="white"/>
<path opacity="0.99" d="M131.888 95.8536C131.89 96.711 131.633 97.5499 131.148 98.2642C130.663 98.9785 129.973 99.5359 129.164 99.8659C128.355 100.196 127.464 100.284 126.604 100.118C125.744 99.9526 124.954 99.5411 124.333 98.9358C123.713 98.3305 123.289 97.5586 123.117 96.7178C122.945 95.8771 123.032 95.0053 123.367 94.2129C123.702 93.4205 124.269 92.743 124.998 92.2664C125.726 91.7897 126.583 91.5353 127.459 91.5353C128.04 91.5335 128.616 91.6438 129.153 91.86C129.69 92.0762 130.178 92.394 130.59 92.7951C131.001 93.1963 131.327 93.673 131.55 94.1978C131.773 94.7226 131.888 95.2853 131.888 95.8536V95.8536Z" fill="white"/>
<path opacity="0.99" d="M487.154 470.729C490.506 470.729 493.224 468.07 493.224 464.79C493.224 461.51 490.506 458.85 487.154 458.85C483.801 458.85 481.083 461.51 481.083 464.79C481.083 468.07 483.801 470.729 487.154 470.729Z" fill="white"/>
<path opacity="0.99" d="M533.149 388.054C533.152 388.911 532.895 389.75 532.41 390.464C531.925 391.179 531.235 391.736 530.426 392.066C529.617 392.396 528.726 392.484 527.866 392.318C527.006 392.153 526.216 391.741 525.595 391.136C524.974 390.531 524.551 389.759 524.379 388.918C524.207 388.077 524.294 387.206 524.629 386.413C524.963 385.621 525.531 384.943 526.26 384.467C526.988 383.99 527.845 383.736 528.721 383.736C529.893 383.736 531.017 384.19 531.847 385C532.677 385.809 533.146 386.907 533.149 388.054V388.054Z" fill="white"/>
<path opacity="0.99" d="M299.993 575C463.282 575 596.1 452.405 600 299.761C565.37 305.656 535.37 329.675 533.241 370.236C505.412 360.838 464.668 382.32 470.611 418.356C426.096 400.445 391.809 440.71 398.238 462.864C372.523 436.683 329.665 450.78 323.236 483.003C312.536 462.864 278.249 440.71 265.392 470.92C256.82 450.78 243.963 392.389 196.819 430.641C194.676 394.39 151.818 358.139 108.959 384.333C112.788 337.61 50.0867 282.885 -0.000244141 297.372C2.49982 451.102 135.832 575 299.993 575Z" fill="#100523"/>
<path opacity="0.99" d="M133.059 305.463L194.224 345.99C195.21 346.69 195.879 347.738 196.09 348.912C196.301 350.086 196.038 351.294 195.356 352.282C194.675 353.27 193.627 353.96 192.435 354.207C191.244 354.454 190 354.238 188.968 353.606C188.812 353.51 188.664 353.403 188.525 353.284L132.63 306.049C132.574 305.989 132.541 305.911 132.538 305.829C132.535 305.747 132.561 305.667 132.612 305.602C132.663 305.537 132.735 305.492 132.817 305.474C132.899 305.456 132.984 305.467 133.059 305.504V305.463Z" fill="#FFCA55"/>
<path opacity="0.99" d="M417.232 80.8445C417.232 85.0104 415.969 89.0827 413.603 92.5464C411.237 96.01 407.874 98.7093 403.94 100.303C400.006 101.896 395.677 102.313 391.5 101.499C387.324 100.685 383.489 98.6781 380.479 95.7313C377.469 92.7846 375.42 89.0308 374.591 84.9446C373.762 80.8584 374.19 76.6235 375.821 72.7755C377.453 68.9275 380.214 65.6393 383.756 63.3269C387.298 61.0145 391.461 59.7817 395.72 59.7844C398.546 59.7844 401.344 60.3293 403.955 61.3878C406.566 62.4464 408.938 63.9979 410.936 65.9537C412.934 67.9095 414.518 70.2312 415.598 72.7863C416.679 75.3413 417.234 78.0796 417.232 80.8445V80.8445Z" fill="#487499"/>
<path opacity="0.99" d="M399.776 93.3521C396.573 93.3479 393.412 92.6455 390.521 91.296C387.631 89.9464 385.084 87.9837 383.066 85.5505C381.048 83.1173 379.61 80.2747 378.856 77.2294C378.102 74.1842 378.051 71.0128 378.707 67.9458C376.731 70.4497 375.357 73.357 374.687 76.4516C374.017 79.5463 374.068 82.7489 374.837 85.8215C375.605 88.8941 377.071 91.7579 379.126 94.2002C381.181 96.6424 383.772 98.6004 386.707 99.9288C389.641 101.257 392.844 101.922 396.077 101.873C399.31 101.824 402.49 101.064 405.382 99.6481C408.273 98.2322 410.801 96.1973 412.778 93.6944C414.756 91.1916 416.131 88.2851 416.803 85.1908C414.795 87.738 412.215 89.7991 409.263 91.2143C406.31 92.6296 403.064 93.361 399.776 93.3521Z" fill="#123E5E"/>
<path opacity="0.99" d="M399.062 81.7669C397.191 83.8352 393.134 83.3041 390.006 80.579C386.877 77.8539 385.863 73.9829 387.734 71.9146C389.606 69.8464 393.662 70.3914 396.791 73.1025C399.919 75.8136 400.933 79.7126 399.062 81.7669Z" fill="#123E5E"/>
<path opacity="0.99" d="M400.433 94.7215C399.897 95.5245 399.128 96.1537 398.226 96.5295C397.324 96.9052 396.328 97.0106 395.364 96.8324C394.4 96.6541 393.512 96.2002 392.813 95.5281C392.113 94.856 391.632 93.9958 391.432 93.0566C391.232 92.1173 391.322 91.141 391.689 90.2514C392.056 89.3618 392.685 88.5988 393.496 88.0589C394.306 87.519 395.263 87.2265 396.243 87.2184C397.224 87.2104 398.185 87.4871 399.005 88.0136C399.55 88.3614 400.019 88.8111 400.386 89.3369C400.753 89.8626 401.01 90.4541 401.143 91.0773C401.276 91.7006 401.281 92.3433 401.16 92.9687C401.038 93.5941 400.791 94.1897 400.433 94.7215V94.7215Z" fill="#487499"/>
<path opacity="0.99" d="M409.79 92.1922C409.535 92.5212 409.187 92.7689 408.788 92.9038C408.39 93.0387 407.959 93.0548 407.551 92.9499C407.144 92.8451 406.777 92.6242 406.498 92.3151C406.218 92.006 406.039 91.6227 405.983 91.2138C405.927 90.805 405.996 90.389 406.182 90.0186C406.367 89.6483 406.661 89.3403 407.026 89.1337C407.391 88.9271 407.811 88.8312 408.232 88.8582C408.652 88.8852 409.055 89.0339 409.39 89.2854C409.612 89.4501 409.798 89.6561 409.939 89.8916C410.079 90.1271 410.17 90.3873 410.207 90.6575C410.245 90.9276 410.227 91.2022 410.155 91.4656C410.083 91.729 409.959 91.9759 409.79 92.1922V92.1922Z" fill="#487499"/>
<path opacity="0.99" d="M384.692 85.3584C384.119 86.1309 383.321 86.7156 382.402 87.0355C381.483 87.3554 380.487 87.3955 379.544 87.1505C378.601 86.9056 377.757 86.387 377.121 85.6632C376.485 84.9394 376.089 84.0442 375.984 83.0955C375.878 82.1469 376.069 81.1893 376.531 80.3488C376.993 79.5083 377.704 78.8243 378.571 78.387C379.438 77.9497 380.42 77.7796 381.387 77.8989C382.355 78.0183 383.263 78.4216 383.992 79.0557C384.938 79.8012 385.544 80.8837 385.675 82.0654C385.806 83.2471 385.453 84.4315 384.692 85.3584Z" fill="#487499"/>
<path opacity="0.99" d="M413.018 79.8384C413.318 81.4595 411.589 83.1365 409.118 83.5837C406.647 84.0309 404.404 83.0666 404.104 81.4455C403.804 79.8245 405.533 78.1475 408.004 77.7003C410.475 77.2531 412.704 78.2034 413.018 79.8384Z" fill="#123E5E"/>
<path opacity="0.99" d="M383.949 63.2363C384.721 65.8077 388.42 67.289 392.52 66.5483C396.619 65.8077 399.748 62.9009 399.219 60.1199C399.219 60.1199 399.219 60.1199 399.219 60.0361C398.104 59.8674 396.977 59.7833 395.848 59.7845C391.621 59.7615 387.481 60.9625 383.949 63.2363V63.2363Z" fill="#123E5E"/>
<path opacity="0.99" d="M405.518 72.5156C404.533 73.5916 402.433 73.3122 400.79 71.9007C399.148 70.4892 398.633 68.4629 399.619 67.3868C400.605 66.3107 402.704 66.5902 404.333 68.0017C405.961 69.4132 406.49 71.4395 405.518 72.5156Z" fill="#123E5E"/>
<path opacity="0.99" d="M411.889 70.6708C411.489 71.118 410.618 70.9922 409.932 70.4053C409.247 69.8183 409.047 69.0078 409.447 68.5466C409.847 68.0855 410.732 68.2112 411.404 68.7982C412.075 69.3851 412.304 70.2236 411.889 70.6708Z" fill="#123E5E"/>
<path opacity="0.99" d="M226.407 418.142C226.407 427.283 223.636 436.219 218.445 443.819C213.254 451.419 205.875 457.343 197.243 460.84C188.61 464.338 179.111 465.252 169.948 463.468C160.784 461.683 152.367 457.28 145.761 450.816C139.155 444.351 134.657 436.115 132.836 427.149C131.015 418.184 131.953 408.891 135.53 400.446C139.108 392.002 145.165 384.785 152.935 379.709C160.705 374.632 169.839 371.924 179.183 371.927C191.709 371.931 203.72 376.801 212.576 385.468C221.432 394.135 226.407 405.887 226.407 418.142V418.142Z" fill="#E29750"/>
<path opacity="0.99" d="M188.082 445.602C175.554 445.602 163.539 440.733 154.68 432.066C145.821 423.399 140.844 411.644 140.844 399.387C140.846 396.171 141.186 392.963 141.858 389.815C137.503 395.304 134.469 401.684 132.982 408.479C131.495 415.274 131.594 422.31 133.27 429.062C134.947 435.815 138.159 442.111 142.667 447.481C147.174 452.852 152.862 457.159 159.306 460.081C165.75 463.004 172.785 464.467 179.887 464.362C186.99 464.257 193.976 462.587 200.327 459.475C206.678 456.363 212.23 451.89 216.57 446.389C220.91 440.888 223.925 434.5 225.393 427.701C220.985 433.275 215.331 437.788 208.863 440.891C202.395 443.994 195.286 445.606 188.082 445.602V445.602Z" fill="#AF692F"/>
<path opacity="0.99" d="M186.525 420.182C182.411 424.71 173.512 423.55 166.641 417.569C159.77 411.588 157.542 403.091 161.656 398.563C165.77 394.035 174.683 395.195 181.54 401.162C188.396 407.13 190.639 415.654 186.525 420.182Z" fill="#AF692F"/>
<path opacity="0.99" d="M189.525 448.593C188.338 450.35 186.646 451.723 184.661 452.538C182.676 453.353 180.488 453.573 178.375 453.171C176.262 452.768 174.319 451.761 172.792 450.276C171.265 448.792 170.223 446.897 169.798 444.833C169.373 442.769 169.584 440.627 170.404 438.68C171.224 436.733 172.617 435.068 174.405 433.896C176.194 432.724 178.297 432.098 180.45 432.097C182.603 432.096 184.707 432.721 186.496 433.891C187.683 434.661 188.703 435.652 189.498 436.808C190.293 437.964 190.846 439.262 191.128 440.628C191.409 441.993 191.412 443.4 191.137 444.767C190.862 446.133 190.314 447.434 189.525 448.593Z" fill="#AF692F"/>
<path opacity="0.99" d="M210.066 443.045C209.51 443.766 208.749 444.309 207.877 444.605C207.006 444.902 206.064 444.938 205.171 444.711C204.279 444.483 203.475 444 202.863 443.325C202.251 442.65 201.858 441.812 201.733 440.918C201.609 440.023 201.759 439.113 202.164 438.302C202.569 437.491 203.211 436.816 204.009 436.363C204.807 435.909 205.724 435.698 206.645 435.756C207.565 435.814 208.448 436.137 209.18 436.686C210.158 437.415 210.801 438.494 210.967 439.687C211.133 440.879 210.809 442.087 210.066 443.045V443.045Z" fill="#AF692F"/>
<path opacity="0.99" d="M154.971 428.064C151.471 431.907 145.1 431.977 140.758 428.19C136.415 424.403 135.716 418.226 139.215 414.369C142.715 410.512 149.086 410.456 153.5 414.229C157.913 418.002 158.471 424.207 154.971 428.064Z" fill="#AF692F"/>
<path opacity="0.99" d="M217.136 415.92C217.808 419.483 213.98 423.173 208.566 424.151C203.152 425.129 198.238 423.033 197.553 419.469C196.867 415.906 200.709 412.216 206.123 411.238C211.537 410.26 216.465 412.356 217.136 415.92Z" fill="#AF692F"/>
<path opacity="0.99" d="M153.257 379.501C154.957 385.161 163.07 388.389 171.941 386.768C181.211 385.091 187.782 378.775 186.625 372.654C186.633 372.603 186.633 372.551 186.625 372.5C175.015 370.689 163.132 373.181 153.3 379.487L153.257 379.501Z" fill="#AF692F"/>
<path opacity="0.99" d="M200.681 399.863C198.538 402.224 193.896 401.624 190.325 398.465C186.754 395.307 185.582 390.919 187.725 388.571C189.868 386.223 194.51 386.81 198.081 389.968C201.652 393.127 202.824 397.515 200.681 399.863Z" fill="#AF692F"/>
<path opacity="0.99" d="M214.679 395.81C213.794 396.788 211.823 396.537 210.394 395.251C208.966 393.965 208.423 392.12 209.309 391.142C210.194 390.164 212.165 390.429 213.594 391.715C215.022 393.001 215.565 394.832 214.679 395.81Z" fill="#AF692F"/>
<path opacity="0.99" d="M463.199 145.73C454.214 148.525 445.658 150.914 439.087 152.312C436.582 152.886 434.045 153.311 431.488 153.584C429.259 153.765 428.202 153.584 427.988 152.871C427.774 152.158 428.474 151.473 430.402 150.272C432.638 149.031 434.946 147.92 437.316 146.946C443.472 144.318 451.814 141.356 460.799 138.463C469.784 135.57 478.34 133.292 484.911 131.895C487.411 131.325 489.944 130.905 492.496 130.637C494.739 130.441 495.781 130.637 496.01 131.35C496.239 132.062 495.524 132.747 493.596 133.935C491.364 135.187 489.055 136.302 486.682 137.275C480.526 139.86 472.184 142.879 463.199 145.73ZM428.831 152.605C429.016 152.731 430.445 153.318 439.387 151.362C445.858 149.964 454.214 147.658 462.927 144.905C471.641 142.152 479.783 139.217 485.868 136.646C494.296 133.097 495.081 131.797 495.167 131.587C494.981 131.461 493.553 130.875 484.597 132.817C478.14 134.215 469.784 136.534 461.07 139.287C452.357 142.04 444.215 144.975 438.13 147.547C429.659 151.096 428.902 152.382 428.831 152.605Z" fill="#FFED9F"/>
<path opacity="0.99" d="M428.831 152.591C428.831 152.452 429.216 151.949 431.102 150.873C433.368 149.616 435.716 148.505 438.13 147.547C444.215 144.975 452.414 142.04 461.07 139.287C469.727 136.534 478.14 134.228 484.597 132.817C493.41 130.902 494.924 131.42 495.153 131.587C495.081 130.833 494.767 130.469 492.782 130.595H492.496C489.944 130.863 487.411 131.283 484.911 131.853C478.34 133.25 469.784 135.598 460.799 138.449C451.814 141.3 443.472 144.304 437.316 146.932C434.946 147.906 432.638 149.017 430.402 150.258L430.216 150.369C428.474 151.459 428.416 152.158 428.831 152.591Z" fill="#C3378A"/>
<path opacity="0.99" d="M483.211 137.736C477.498 140.028 470.427 142.53 462.927 144.905C454.971 147.421 447.315 149.559 441.115 150.984L441.387 151.809C447.6 150.411 455.228 148.245 463.199 145.73C470.712 143.34 477.769 140.853 483.483 138.561L483.211 137.736Z" fill="#AF2C61"/>
<path opacity="0.99" d="M479.754 135.347C481.025 139.208 481.097 143.351 479.961 147.252C478.825 151.153 476.533 154.638 473.373 157.265C470.214 159.891 466.33 161.543 462.211 162.011C458.093 162.478 453.925 161.741 450.234 159.892C446.544 158.043 443.497 155.165 441.478 151.622C439.459 148.079 438.559 144.03 438.892 139.987C439.224 135.943 440.775 132.087 443.347 128.906C445.919 125.724 449.397 123.36 453.342 122.112C455.965 121.283 458.729 120.967 461.476 121.184C464.223 121.4 466.899 122.144 469.352 123.373C471.805 124.602 473.987 126.292 475.772 128.347C477.556 130.401 478.91 132.78 479.754 135.347V135.347Z" fill="#FF9C62"/>
<g style="mix-blend-mode:multiply" opacity="0.5">
<path d="M471.455 153.039C468.356 154.025 465.065 154.293 461.842 153.82C458.619 153.347 455.552 152.146 452.886 150.314L458.314 148.595C458.903 148.409 459.392 148.003 459.675 147.464C459.958 146.925 460.01 146.299 459.821 145.723C459.631 145.146 459.215 144.667 458.665 144.391C458.114 144.114 457.474 144.063 456.885 144.248L448.929 146.764C448.61 146.411 448.309 146.043 448.029 145.66L449.072 145.338C449.45 145.22 449.766 144.959 449.948 144.613C450.13 144.267 450.164 143.864 450.043 143.494C449.922 143.123 449.655 142.815 449.301 142.637C448.948 142.458 448.536 142.425 448.157 142.544L446.429 143.089C445.966 142.237 445.565 141.354 445.229 140.447L449.357 139.148C449.545 139.094 449.719 139.004 449.869 138.882C450.019 138.76 450.142 138.609 450.23 138.439C450.319 138.269 450.371 138.082 450.382 137.892C450.394 137.701 450.366 137.51 450.3 137.331C450.245 137.149 450.153 136.98 450.029 136.835C449.906 136.689 449.753 136.569 449.581 136.483C449.409 136.397 449.22 136.346 449.027 136.333C448.834 136.32 448.64 136.346 448.457 136.409L444.415 137.68L446.415 137.051C445.985 137.175 445.526 137.151 445.113 136.983C444.699 136.815 444.357 136.514 444.144 136.129C443.734 133.055 444.041 129.93 445.043 126.99C442.794 129.167 441.077 131.814 440.022 134.732C438.966 137.651 438.6 140.765 438.95 143.842C439.299 146.918 440.356 149.878 442.041 152.498C443.726 155.118 445.995 157.332 448.679 158.972C451.362 160.613 454.39 161.638 457.536 161.97C460.682 162.303 463.864 161.935 466.844 160.894C469.824 159.852 472.525 158.165 474.743 155.957C476.961 153.75 478.641 151.08 479.654 148.147C477.345 150.377 474.538 152.051 471.455 153.039V153.039Z" fill="#DE3C7A"/>
</g>
<path opacity="0.99" d="M450.843 140.28C450.907 140.458 450.933 140.648 450.92 140.837C450.907 141.026 450.855 141.21 450.766 141.379C450.678 141.547 450.556 141.697 450.407 141.818C450.258 141.939 450.086 142.029 449.9 142.082L443.6 144.081C443.417 144.146 443.222 144.173 443.027 144.162C442.832 144.15 442.642 144.099 442.468 144.013C442.294 143.926 442.14 143.806 442.015 143.659C441.891 143.512 441.798 143.342 441.743 143.159C441.677 142.978 441.65 142.786 441.663 142.595C441.676 142.404 441.729 142.217 441.818 142.047C441.908 141.876 442.033 141.726 442.185 141.604C442.336 141.483 442.512 141.394 442.701 141.342L449 139.343C449.184 139.281 449.378 139.256 449.572 139.27C449.766 139.283 449.955 139.336 450.128 139.423C450.3 139.511 450.452 139.632 450.575 139.779C450.698 139.927 450.789 140.097 450.843 140.28V140.28Z" fill="#FF9C62"/>
<g style="mix-blend-mode:multiply" opacity="0.5">
<path d="M470.241 141.384C470.403 141.873 470.662 142.326 471.003 142.717C471.344 143.109 471.761 143.43 472.229 143.664C472.697 143.898 473.208 144.039 473.732 144.079C474.256 144.119 474.783 144.058 475.283 143.899L480.768 142.166C480.823 139.853 480.481 137.548 479.754 135.346C479.64 135.011 479.526 134.69 479.397 134.354L472.812 136.437C471.801 136.76 470.962 137.462 470.48 138.39C469.998 139.317 469.912 140.394 470.241 141.384V141.384Z" fill="#DE3C7A"/>
</g>
<g style="mix-blend-mode:multiply" opacity="0.5">
<path d="M474.698 127.227L470.412 128.625C469.844 128.81 469.374 129.208 469.106 129.733C468.838 130.257 468.794 130.864 468.984 131.42C469.173 131.975 469.581 132.435 470.116 132.697C470.652 132.959 471.272 133.002 471.841 132.817L477.74 130.958C476.88 129.601 475.859 128.349 474.698 127.227V127.227Z" fill="#DE3C7A"/>
</g>
<path opacity="0.99" d="M459.728 149.657C459.792 149.835 459.818 150.025 459.805 150.214C459.792 150.403 459.74 150.587 459.651 150.756C459.563 150.925 459.441 151.074 459.292 151.195C459.143 151.316 458.971 151.406 458.785 151.46L452.514 153.458C452.331 153.523 452.135 153.55 451.941 153.539C451.746 153.527 451.556 153.476 451.382 153.39C451.208 153.303 451.053 153.183 450.929 153.036C450.804 152.889 450.712 152.719 450.657 152.536V152.536C450.591 152.355 450.563 152.163 450.576 151.972C450.589 151.781 450.642 151.594 450.732 151.424C450.822 151.253 450.946 151.103 451.098 150.982C451.25 150.86 451.426 150.771 451.614 150.719L457.914 148.72C458.097 148.658 458.292 148.633 458.486 148.647C458.68 148.66 458.869 148.713 459.041 148.8C459.214 148.888 459.366 149.009 459.489 149.156C459.612 149.304 459.703 149.474 459.756 149.657H459.728Z" fill="#FF9C62"/>
<g style="mix-blend-mode:multiply" opacity="0.5">
<path d="M456.257 135.514C456.323 135.695 456.35 135.886 456.337 136.078C456.324 136.269 456.271 136.456 456.182 136.626C456.092 136.796 455.967 136.947 455.815 137.068C455.664 137.189 455.488 137.279 455.299 137.331L453.642 137.848C453.46 137.911 453.266 137.936 453.073 137.924C452.88 137.911 452.691 137.86 452.519 137.773C452.347 137.687 452.194 137.568 452.07 137.422C451.947 137.276 451.855 137.107 451.8 136.926V136.926C451.733 136.746 451.705 136.555 451.717 136.365C451.729 136.174 451.781 135.988 451.869 135.818C451.958 135.647 452.081 135.497 452.231 135.375C452.381 135.253 452.555 135.162 452.743 135.109L454.4 134.592C454.583 134.527 454.778 134.499 454.973 134.511C455.168 134.523 455.358 134.574 455.532 134.66C455.706 134.746 455.86 134.867 455.985 135.014C456.109 135.161 456.202 135.331 456.257 135.514Z" fill="#DE3C7A"/>
</g>
<path opacity="0.99" d="M454.114 144.472C454.14 144.553 454.15 144.638 454.143 144.722C454.136 144.807 454.112 144.889 454.072 144.965C454.032 145.04 453.978 145.107 453.911 145.161C453.845 145.216 453.768 145.257 453.685 145.283L446.129 147.686C445.96 147.736 445.779 147.72 445.622 147.642C445.465 147.563 445.345 147.429 445.286 147.267V147.267C445.232 147.102 445.247 146.923 445.327 146.768C445.407 146.614 445.546 146.497 445.715 146.443L453.271 144.039C453.441 143.99 453.625 144.008 453.782 144.089C453.939 144.17 454.058 144.307 454.114 144.472V144.472Z" fill="#FF9C62"/>
<path opacity="0.99" d="M457.214 152.577C456.547 152.324 455.808 152.324 455.142 152.577L456.271 151.683L457.485 151.543L457.214 152.577Z" fill="#FF9C62"/>
<path opacity="0.99" d="M462.927 144.905C454.214 147.7 445.786 149.95 439.387 151.362C438.387 151.585 437.473 151.767 436.644 151.935L436.915 152.759L439.087 152.312C445.657 150.915 454.214 148.567 463.199 145.73C471.112 143.214 478.511 140.587 484.368 138.197L484.097 137.373C478.226 139.763 470.812 142.404 462.927 144.905Z" fill="#FFED9F"/>
<path opacity="0.99" d="M434.687 418.184C417.689 414.55 401.833 410.512 390.091 406.808C385.569 405.441 381.133 403.813 376.807 401.931C373.079 400.198 371.608 398.912 371.893 397.599C372.179 396.285 374.079 395.726 378.207 395.67C382.937 395.719 387.659 396.045 392.348 396.649C404.633 398.046 420.746 400.841 437.744 404.46C454.742 408.08 470.598 412.119 482.34 415.836C486.86 417.199 491.291 418.828 495.61 420.713C499.338 422.446 500.81 423.732 500.524 425.031C500.238 426.331 498.353 426.904 494.224 426.96C489.49 426.919 484.762 426.592 480.069 425.982C467.798 424.57 451.671 421.803 434.687 418.184ZM373.507 397.948C373.679 398.326 375.379 400.547 391.477 405.564C403.09 409.184 418.617 413.111 435.03 416.633C451.443 420.154 467.227 422.865 479.312 424.305C496.067 426.289 498.567 424.948 498.881 424.682C498.71 424.319 497.01 422.083 480.926 417.08C469.298 413.446 453.785 409.519 437.358 406.012C420.931 402.504 405.162 399.779 393.077 398.339C376.321 396.341 373.822 397.683 373.507 397.948Z" fill="#66E2FF"/>
<path opacity="0.99" d="M373.522 397.934C373.736 397.767 374.722 397.263 378.764 397.263C383.544 397.326 388.315 397.685 393.048 398.339C405.162 399.737 420.889 402.532 437.33 406.012C453.771 409.491 469.27 413.446 480.897 417.08C496.71 421.999 498.61 424.249 498.838 424.668C499.438 423.382 499.281 422.516 495.981 420.923L495.524 420.713C491.205 418.828 486.774 417.199 482.254 415.836C470.484 412.119 454.643 408.08 437.658 404.46C420.674 400.841 404.547 398.06 392.263 396.649C387.573 396.045 382.851 395.719 378.121 395.67H377.736C374.022 395.796 373.279 396.872 373.522 397.934Z" fill="#C3378A"/>
<path opacity="0.99" d="M387.277 408.597C387.42 408.443 388.12 407.912 391.291 407.339C395.071 406.717 398.888 406.334 402.719 406.193C412.418 405.634 425.159 405.592 438.572 406.053C451.986 406.515 464.699 407.451 474.283 408.681C487.396 410.358 489.225 411.839 489.453 412.147C489.739 411.057 489.453 410.4 486.682 409.603L486.282 409.505C482.622 408.625 478.911 407.963 475.169 407.521C465.399 406.249 452.4 405.271 438.544 404.796C424.688 404.321 411.661 404.377 401.833 404.977C398.063 405.143 394.308 405.544 390.591 406.179H390.291C387.363 406.822 386.935 407.758 387.277 408.597Z" fill="#C3378A"/>
<path opacity="0.99" d="M469.855 414.746C460.813 415.109 449.771 415.081 438.215 414.746C425.959 414.327 414.303 413.516 405.047 412.44V413.712C414.332 414.774 425.945 415.584 438.23 416.018C449.814 416.423 460.828 416.437 469.87 416.088L469.855 414.746Z" fill="#AF2C61"/>
<path opacity="0.99" d="M438.23 415.948C424.388 415.459 411.375 414.55 401.605 413.223C397.863 412.778 394.152 412.116 390.491 411.238C387.32 410.4 385.978 409.589 386.021 408.527C386.063 407.465 387.449 406.752 390.677 406.151C394.394 405.516 398.149 405.115 401.919 404.95C411.747 404.349 424.774 404.279 438.63 404.768C452.486 405.257 465.484 406.165 475.255 407.493C478.997 407.935 482.708 408.598 486.368 409.477C489.554 410.316 490.896 411.113 490.853 412.175C490.811 413.237 489.425 413.949 486.197 414.564C482.478 415.186 478.723 415.587 474.955 415.766C465.07 416.367 452.014 416.423 438.23 415.948ZM387.263 408.597C387.463 408.863 389.12 410.372 402.462 412.077C412.104 413.293 424.803 414.229 438.173 414.69C451.543 415.151 464.327 415.123 474.041 414.564C487.468 413.796 489.225 412.398 489.439 412.147C489.239 411.881 487.597 410.372 474.255 408.667C464.613 407.437 451.914 406.515 438.544 406.04C425.174 405.565 412.389 405.62 402.69 406.179C389.249 406.934 387.478 408.332 387.263 408.597Z" fill="#25C3F4"/>
<path opacity="0.99" d="M466.298 409.771C466.08 415.717 464.064 421.467 460.506 426.293C456.947 431.118 452.006 434.804 446.307 436.882C440.608 438.961 434.407 439.339 428.488 437.97C422.569 436.601 417.198 433.546 413.054 429.191C408.91 424.835 406.179 419.376 405.206 413.502C404.233 407.628 405.062 401.604 407.589 396.191C410.115 390.779 414.225 386.22 419.4 383.093C424.574 379.965 430.58 378.409 436.658 378.621C440.695 378.761 444.665 379.679 448.339 381.321C452.014 382.962 455.322 385.296 458.074 388.189C460.827 391.081 462.97 394.476 464.381 398.179C465.792 401.883 466.444 405.821 466.298 409.771Z" fill="#449ECC"/>
<g style="mix-blend-mode:multiply" opacity="0.5">
<path d="M445.8 430.076C441.04 429.913 436.383 428.669 432.199 426.442C428.014 424.216 424.416 421.068 421.688 417.247L430.045 417.541C430.922 417.525 431.759 417.181 432.385 416.579C433.01 415.977 433.376 415.164 433.407 414.306C433.439 413.449 433.132 412.612 432.552 411.968C431.972 411.325 431.161 410.923 430.288 410.847L418.032 410.428C417.789 409.771 417.574 409.128 417.374 408.457H418.974C419.274 408.5 419.58 408.48 419.872 408.399C420.164 408.318 420.435 408.177 420.667 407.987C420.9 407.796 421.089 407.56 421.222 407.293C421.355 407.027 421.429 406.736 421.439 406.439C421.449 406.142 421.395 405.847 421.28 405.572C421.166 405.298 420.994 405.05 420.774 404.844C420.555 404.639 420.295 404.482 420.009 404.382C419.723 404.282 419.42 404.242 419.117 404.265L416.432 404.181C416.244 402.791 416.149 401.39 416.146 399.988L422.517 400.212C423.046 400.172 423.542 399.943 423.909 399.567C424.276 399.192 424.489 398.698 424.507 398.178C424.525 397.659 424.346 397.152 424.005 396.754C423.664 396.355 423.185 396.094 422.66 396.02L416.446 395.81L419.517 395.922C418.865 395.881 418.248 395.623 417.767 395.191C417.286 394.758 416.971 394.178 416.874 393.546C417.869 389.1 419.892 384.936 422.788 381.374C418.565 383.27 414.835 386.078 411.879 389.586C408.923 393.094 406.818 397.211 405.721 401.629C404.625 406.047 404.565 410.651 405.547 415.094C406.529 419.538 408.528 423.706 411.392 427.286C414.256 430.867 417.912 433.765 422.085 435.765C426.259 437.765 430.841 438.815 435.488 438.834C440.135 438.854 444.726 437.844 448.917 435.879C453.107 433.914 456.789 431.047 459.685 427.491C455.325 429.396 450.571 430.281 445.8 430.076V430.076Z" fill="#DE3C7A"/>
</g>
<path opacity="0.99" d="M423.945 402.364C423.923 402.922 423.676 403.448 423.259 403.827C422.841 404.207 422.287 404.409 421.717 404.391L412.004 404.055C411.72 404.046 411.442 403.983 411.184 403.868C410.925 403.754 410.693 403.591 410.499 403.388C410.305 403.186 410.154 402.948 410.055 402.688C409.955 402.429 409.909 402.152 409.918 401.875V401.875C409.927 401.597 409.993 401.323 410.111 401.069C410.229 400.816 410.397 400.588 410.605 400.398C410.814 400.208 411.058 400.061 411.325 399.964C411.592 399.868 411.876 399.824 412.161 399.835L421.86 400.17C422.145 400.179 422.424 400.243 422.684 400.359C422.943 400.474 423.176 400.638 423.37 400.842C423.564 401.046 423.714 401.286 423.813 401.547C423.912 401.808 423.957 402.086 423.945 402.364V402.364Z" fill="#449ECC"/>
<g style="mix-blend-mode:multiply" opacity="0.5">
<path d="M450.114 413.418C450.088 414.177 450.214 414.933 450.488 415.643C450.761 416.354 451.175 417.004 451.706 417.557C452.237 418.111 452.874 418.556 453.582 418.867C454.289 419.178 455.053 419.35 455.828 419.372L464.27 419.651C465.536 416.498 466.241 413.156 466.356 409.771C466.356 409.254 466.356 408.737 466.356 408.22L456.214 407.87C455.44 407.84 454.668 407.96 453.943 408.223C453.217 408.487 452.551 408.887 451.984 409.403C451.418 409.919 450.96 410.539 450.64 411.228C450.319 411.917 450.14 412.661 450.114 413.418V413.418Z" fill="#DE3C7A"/>
</g>
<g style="mix-blend-mode:multiply" opacity="0.5">
<path d="M463.499 396.02L456.842 395.796C456.411 395.781 455.98 395.85 455.576 395.998C455.172 396.146 454.801 396.37 454.485 396.658C454.17 396.946 453.915 397.293 453.736 397.677C453.557 398.061 453.457 398.476 453.442 398.898C453.427 399.321 453.498 399.741 453.649 400.137C453.8 400.533 454.029 400.895 454.324 401.204C454.618 401.513 454.972 401.762 455.365 401.937C455.758 402.112 456.182 402.21 456.614 402.225L465.684 402.546C465.216 400.295 464.482 398.105 463.499 396.02Z" fill="#DE3C7A"/>
</g>
<path opacity="0.99" d="M431.373 419.665C431.351 420.224 431.104 420.751 430.687 421.133C430.27 421.515 429.716 421.721 429.145 421.705L419.431 421.37C419.148 421.359 418.87 421.294 418.612 421.178C418.355 421.062 418.123 420.897 417.931 420.693C417.738 420.489 417.589 420.251 417.491 419.99C417.393 419.73 417.349 419.453 417.36 419.176V419.176C417.383 418.618 417.629 418.09 418.046 417.708C418.463 417.326 419.017 417.121 419.589 417.136L429.302 417.485C429.872 417.507 430.409 417.748 430.797 418.157C431.185 418.566 431.392 419.108 431.373 419.665V419.665Z" fill="#449ECC"/>
<g style="mix-blend-mode:multiply" opacity="0.5">
<path d="M433.816 398.465C433.808 398.743 433.745 399.016 433.628 399.27C433.512 399.523 433.345 399.752 433.138 399.941C432.931 400.131 432.687 400.279 432.421 400.376C432.154 400.473 431.871 400.517 431.587 400.505L429.031 400.422C428.747 400.411 428.469 400.346 428.211 400.229C427.954 400.113 427.722 399.949 427.53 399.745C427.338 399.541 427.188 399.302 427.09 399.042C426.992 398.781 426.948 398.505 426.959 398.228V398.228C426.982 397.67 427.229 397.144 427.646 396.765C428.064 396.385 428.618 396.182 429.188 396.201L431.745 396.285C432.314 396.307 432.852 396.549 433.24 396.957C433.628 397.366 433.835 397.908 433.816 398.465Z" fill="#DE3C7A"/>
</g>
<path opacity="0.99" d="M426.288 409.757C426.284 409.883 426.255 410.007 426.202 410.122C426.149 410.237 426.073 410.34 425.978 410.426C425.884 410.512 425.773 410.578 425.652 410.622C425.531 410.665 425.402 410.685 425.274 410.679L413.632 410.274C413.503 410.27 413.376 410.242 413.259 410.19C413.142 410.138 413.036 410.063 412.948 409.971C412.86 409.879 412.792 409.77 412.748 409.652C412.703 409.534 412.683 409.408 412.689 409.282V409.282C412.7 409.028 412.813 408.79 413.003 408.617C413.193 408.444 413.444 408.352 413.703 408.359L425.345 408.765C425.604 408.776 425.848 408.886 426.025 409.072C426.201 409.257 426.296 409.503 426.288 409.757V409.757Z" fill="#449ECC"/>
<path opacity="0.99" d="M438.23 414.676C424.817 414.215 412.118 413.279 402.519 412.063C401.005 411.867 399.662 411.672 398.434 411.49V412.762L401.648 413.223C411.418 414.494 424.431 415.459 438.273 415.948C450.457 416.367 462.013 416.381 471.312 415.948V414.676C461.985 415.109 450.386 415.109 438.23 414.676Z" fill="#25C3F4"/>
<path opacity="0.99" d="M435.03 416.633C418.56 413.111 403.09 409.184 391.477 405.564C389.649 404.991 388.034 404.474 386.563 403.971L386.206 405.536C387.435 405.942 388.72 406.375 390.091 406.808C401.847 410.512 417.689 414.55 434.687 418.184C449.657 421.37 463.942 423.969 475.483 425.367L475.826 423.802C464.27 422.348 449.957 419.777 435.03 416.633Z" fill="#66E2FF"/>
<path opacity="0.99" d="M426.416 422.474C425.617 421.819 424.602 421.471 423.56 421.496L425.574 420.825L427.316 421.244L426.416 422.474Z" fill="#449ECC"/>
<path opacity="0.99" d="M96.6337 343.809C107.544 343.809 116.389 335.156 116.389 324.482C116.389 313.808 107.544 305.155 96.6337 305.155C85.7232 305.155 76.8784 313.808 76.8784 324.482C76.8784 335.156 85.7232 343.809 96.6337 343.809Z" fill="#FFE171"/>
<g style="mix-blend-mode:multiply" opacity="0.5">
<path d="M101.762 330.911C96.5209 330.911 91.4946 328.875 87.7875 325.251C84.0804 321.627 81.9959 316.711 81.9921 311.583V311.486C79.8423 313.808 78.3017 316.606 77.503 319.64C76.7043 322.674 76.6714 325.852 77.4073 328.901C78.1431 331.951 79.6256 334.779 81.727 337.143C83.8283 339.507 86.4856 341.336 89.47 342.472C92.4544 343.608 95.6763 344.018 98.8583 343.665C102.04 343.312 105.087 342.208 107.736 340.447C110.385 338.687 112.556 336.322 114.064 333.558C115.571 330.794 116.369 327.713 116.389 324.58C114.538 326.576 112.28 328.17 109.76 329.261C107.241 330.351 104.516 330.913 101.762 330.911V330.911Z" fill="#DE3C7A"/>
</g>
<g style="mix-blend-mode:multiply" opacity="0.5">
<path d="M100.048 319.94C100.048 320.381 99.8685 320.804 99.5498 321.116C99.231 321.428 98.7986 321.603 98.3478 321.603H92.5483C92.3239 321.605 92.1013 321.564 91.8935 321.481C91.6856 321.398 91.4965 321.276 91.3371 321.121C91.1778 320.967 91.0513 320.783 90.965 320.58C90.8786 320.377 90.8342 320.16 90.8342 319.94V319.94C90.8342 319.496 91.0148 319.069 91.3363 318.755C91.6577 318.44 92.0937 318.263 92.5483 318.263H98.4049C98.6294 318.263 98.8516 318.307 99.0587 318.391C99.2659 318.476 99.4539 318.6 99.612 318.755C99.77 318.911 99.8949 319.096 99.9795 319.3C100.064 319.503 100.107 319.721 100.105 319.94H100.048Z" fill="#DE3C7A"/>
</g>
<g style="mix-blend-mode:multiply" opacity="0.5">
<path d="M100.291 311.108C100.291 312.22 100.742 313.287 101.546 314.073C102.349 314.859 103.439 315.301 104.576 315.301H114.018C111.958 311.602 108.724 308.659 104.804 306.916H104.576C103.439 306.916 102.349 307.357 101.546 308.144C100.742 308.93 100.291 309.996 100.291 311.108V311.108Z" fill="#DE3C7A"/>
</g>
<g style="mix-blend-mode:multiply" opacity="0.5">
<path d="M108.832 319.94C108.832 320.16 108.788 320.377 108.702 320.58C108.615 320.783 108.489 320.967 108.33 321.121C108.17 321.276 107.981 321.398 107.773 321.481C107.565 321.564 107.343 321.605 107.118 321.603H104.933C104.708 321.605 104.486 321.564 104.278 321.481C104.07 321.398 103.881 321.276 103.722 321.121C103.562 320.967 103.436 320.783 103.349 320.58C103.263 320.377 103.219 320.16 103.219 319.94V319.94C103.219 319.496 103.399 319.069 103.721 318.755C104.042 318.44 104.478 318.263 104.933 318.263H107.118C107.573 318.263 108.009 318.44 108.33 318.755C108.652 319.069 108.832 319.496 108.832 319.94V319.94Z" fill="#DE3C7A"/>
</g>
<g style="mix-blend-mode:multiply" opacity="0.5">
<path d="M89.8058 313.261C89.8058 313.639 89.691 314.009 89.4759 314.324C89.2609 314.639 88.9553 314.884 88.5977 315.029C88.2401 315.174 87.8466 315.212 87.467 315.138C87.0874 315.064 86.7387 314.882 86.465 314.614C86.1913 314.347 86.005 314.005 85.9294 313.634C85.8539 313.263 85.8927 312.878 86.0408 312.528C86.1889 312.178 86.4398 311.879 86.7616 311.669C87.0834 311.458 87.4618 311.346 87.8488 311.346C88.1063 311.344 88.3616 311.392 88.5999 311.488C88.8382 311.583 89.0547 311.724 89.2368 311.903C89.4189 312.081 89.563 312.293 89.6607 312.526C89.7583 312.759 89.8077 313.009 89.8058 313.261V313.261Z" fill="#DE3C7A"/>
</g>
<path opacity="0.99" d="M101.762 328.773C101.762 329.671 101.489 330.549 100.979 331.296C100.469 332.043 99.7441 332.625 98.8958 332.969C98.0475 333.312 97.1141 333.402 96.2135 333.227C95.313 333.052 94.4858 332.619 93.8365 331.984C93.1873 331.349 92.7451 330.54 92.566 329.659C92.3869 328.778 92.4788 327.864 92.8302 327.034C93.1816 326.205 93.7766 325.495 94.54 324.996C95.3035 324.497 96.201 324.231 97.1192 324.231C98.3505 324.231 99.5313 324.709 100.402 325.561C101.273 326.413 101.762 327.568 101.762 328.773Z" fill="#FFE171"/>
<path opacity="0.99" d="M88.0916 322.568C88.0915 323.041 87.9479 323.504 87.6789 323.897C87.4099 324.29 87.0275 324.596 86.5803 324.777C86.1332 324.957 85.6413 325.004 85.1671 324.91C84.6929 324.817 84.2577 324.588 83.9167 324.252C83.5756 323.917 83.3441 323.49 83.2515 323.025C83.1589 322.561 83.2093 322.08 83.3964 321.643C83.5834 321.207 83.8987 320.835 84.3023 320.574C84.7059 320.313 85.1795 320.175 85.6632 320.178C85.9833 320.178 86.3003 320.24 86.5958 320.36C86.8914 320.48 87.1597 320.657 87.3854 320.879C87.6111 321.101 87.7896 321.364 87.9108 321.654C88.032 321.944 88.0934 322.255 88.0916 322.568Z" fill="#FFE171"/>
<path opacity="0.99" d="M88.3344 330.911C88.3344 331.187 88.2506 331.457 88.0937 331.687C87.9367 331.917 87.7136 332.096 87.4526 332.202C87.1916 332.308 86.9044 332.335 86.6273 332.281C86.3502 332.227 86.0957 332.094 85.8959 331.899C85.6962 331.703 85.5601 331.454 85.505 331.183C85.4499 330.912 85.4782 330.631 85.5863 330.376C85.6944 330.121 85.8775 329.902 86.1124 329.749C86.3473 329.595 86.6235 329.513 86.906 329.513C87.2848 329.513 87.6482 329.66 87.916 329.922C88.1839 330.185 88.3344 330.54 88.3344 330.911Z" fill="#FFE171"/>
<path opacity="0.99" d="M571.885 281.212C578.688 241.094 550.961 203.176 509.954 196.52C468.947 189.864 430.189 216.99 423.386 257.109C416.583 297.227 444.31 335.145 485.317 341.801C526.324 348.457 565.081 321.33 571.885 281.212Z" fill="#F7527B"/>
<path opacity="0.99" d="M511.851 312.925C500.658 312.91 489.609 310.456 479.507 305.739C469.406 301.022 460.506 294.161 453.455 285.657C446.403 277.152 441.378 267.217 438.745 256.574C436.111 245.931 435.935 234.847 438.23 224.129C431.296 232.877 426.468 243.042 424.104 253.867C421.74 264.693 421.901 275.901 424.576 286.657C427.251 297.413 432.37 307.441 439.553 315.994C446.736 324.548 455.798 331.407 466.065 336.061C476.331 340.715 487.538 343.044 498.852 342.876C510.166 342.707 521.295 340.045 531.413 335.088C541.53 330.13 550.374 323.005 557.288 314.242C564.201 305.479 569.007 295.303 571.346 284.472C564.31 293.346 555.289 300.525 544.975 305.457C534.662 310.389 523.331 312.944 511.851 312.925V312.925Z" fill="#9F3692"/>
<path opacity="0.99" d="M473.041 285.52C473.041 287.207 472.356 288.824 471.137 290.017C469.918 291.209 468.265 291.879 466.541 291.879H444.243C442.518 291.879 440.864 291.209 439.643 290.017C438.421 288.825 437.734 287.208 437.73 285.52V285.52C437.73 283.83 438.416 282.209 439.638 281.014C440.859 279.819 442.516 279.148 444.243 279.148H466.541C468.266 279.152 469.919 279.825 471.138 281.019C472.356 282.214 473.041 283.833 473.041 285.52Z" fill="#9F3692"/>
<path opacity="0.99" d="M461.185 256.271C461.185 257.961 460.498 259.582 459.277 260.777C458.055 261.972 456.399 262.643 454.671 262.643H432.373C430.648 262.64 428.995 261.967 427.777 260.772C426.558 259.577 425.874 257.959 425.874 256.271V256.271C425.874 254.584 426.559 252.967 427.777 251.775C428.996 250.582 430.649 249.912 432.373 249.912H454.671C456.396 249.912 458.051 250.582 459.272 251.774C460.493 252.966 461.181 254.583 461.185 256.271Z" fill="#9F3692"/>
<path opacity="0.99" d="M481.383 267.912C481.383 269.395 480.781 270.816 479.709 271.865C478.638 272.913 477.184 273.502 475.669 273.502H437.344C435.829 273.502 434.375 272.913 433.304 271.865C432.232 270.816 431.63 269.395 431.63 267.912C431.63 266.429 432.232 265.008 433.304 263.959C434.375 262.911 435.829 262.322 437.344 262.322H475.64C477.156 262.322 478.609 262.911 479.681 263.959C480.752 265.008 481.354 266.429 481.354 267.912H481.383Z" fill="#9F3692"/>
<path opacity="0.99" d="M500.21 267.912C500.21 269.395 499.608 270.816 498.536 271.865C497.465 272.913 496.011 273.502 494.496 273.502H491.639C490.124 273.502 488.67 272.913 487.599 271.865C486.527 270.816 485.925 269.395 485.925 267.912C485.925 266.429 486.527 265.008 487.599 263.959C488.67 262.911 490.124 262.322 491.639 262.322H494.496C496.011 262.322 497.465 262.911 498.536 263.959C499.608 265.008 500.21 266.429 500.21 267.912Z" fill="#9F3692"/>
<path opacity="0.99" d="M486.411 218.287C486.411 221.252 487.615 224.096 489.758 226.193C491.901 228.289 494.808 229.467 497.838 229.467H561.075C555.195 220.488 547.398 212.86 538.22 207.107H497.838C494.808 207.107 491.901 208.285 489.758 210.382C487.615 212.479 486.411 215.322 486.411 218.287Z" fill="#9F3692"/>
<path opacity="0.99" d="M560.918 229.285H538.934C536.963 229.369 535.1 230.194 533.736 231.588C532.371 232.982 531.609 234.838 531.609 236.769C531.609 238.7 532.371 240.556 533.736 241.95C535.1 243.344 536.963 244.169 538.934 244.252H568.503C566.573 238.994 564.027 233.972 560.918 229.285V229.285Z" fill="#9F3692"/>
<path opacity="0.99" d="M551.748 267.185C551.748 269.169 552.552 271.073 553.985 272.477C555.418 273.881 557.362 274.672 559.39 274.676H572.703C572.846 272.859 572.931 271.028 572.931 269.17C572.925 266.006 572.715 262.846 572.303 259.709H559.447C558.438 259.701 557.439 259.889 556.505 260.262C555.571 260.634 554.722 261.184 554.006 261.879C553.29 262.574 552.722 263.4 552.335 264.311C551.947 265.222 551.748 266.199 551.748 267.185V267.185Z" fill="#9F3692"/>
<path opacity="0.99" d="M489.725 299.928C489.725 302.037 488.868 304.06 487.344 305.551C485.82 307.042 483.752 307.88 481.597 307.88H453.728C451.573 307.88 449.505 307.042 447.981 305.551C446.457 304.06 445.6 302.037 445.6 299.928C445.598 298.883 445.807 297.847 446.215 296.881C446.623 295.915 447.221 295.037 447.976 294.297C448.731 293.557 449.627 292.97 450.614 292.569C451.602 292.169 452.66 291.963 453.728 291.963H481.597C482.665 291.963 483.724 292.169 484.711 292.569C485.698 292.97 486.594 293.557 487.349 294.297C488.104 295.037 488.702 295.915 489.11 296.881C489.518 297.847 489.727 298.883 489.725 299.928V299.928Z" fill="#F7527B"/>
<path opacity="0.99" d="M463.084 247.103C463.066 247.821 462.767 248.503 462.249 249.011C461.73 249.518 461.032 249.811 460.299 249.829H434.587C433.842 249.829 433.126 249.544 432.592 249.035C432.058 248.526 431.749 247.833 431.73 247.103C431.73 246.362 432.031 245.651 432.567 245.127C433.103 244.603 433.829 244.308 434.587 244.308H460.299C461.044 244.327 461.753 244.629 462.273 245.151C462.793 245.674 463.085 246.374 463.084 247.103V247.103Z" fill="#F7527B"/>
<path opacity="0.99" d="M468.398 276.311C468.398 277.04 468.107 277.741 467.587 278.263C467.066 278.785 466.358 279.088 465.613 279.106H439.901C439.156 279.088 438.447 278.785 437.927 278.263C437.406 277.741 437.115 277.04 437.115 276.311V276.311C437.134 275.594 437.433 274.911 437.951 274.404C438.47 273.896 439.168 273.604 439.901 273.586H465.613C466.346 273.604 467.044 273.896 467.562 274.404C468.081 274.911 468.38 275.594 468.398 276.311Z" fill="#F7527B"/>
<path opacity="0.99" d="M433.773 244.504C434.604 244.015 435.299 243.333 435.797 242.519C436.295 241.705 436.581 240.784 436.63 239.836C436.487 236.902 436.63 239.291 436.63 239.291L439.001 246.111L434.087 246.516L433.773 244.504Z" fill="#F7527B"/>
<path opacity="0.99" d="M326.226 44.0767C326.22 47.9844 325.031 51.8027 322.807 55.0489C320.584 58.2951 317.426 60.8235 313.734 62.3144C310.042 63.8053 305.981 64.1918 302.065 63.4251C298.148 62.6584 294.552 60.7728 291.731 58.0067C288.909 55.2407 286.99 51.7183 286.214 47.885C285.439 44.0517 285.842 40.0795 287.374 36.4707C288.906 32.8618 291.497 29.7782 294.82 27.6098C298.143 25.4415 302.048 24.2856 306.042 24.2883C308.696 24.2902 311.323 24.8036 313.774 25.7992C316.225 26.7948 318.451 28.2532 320.325 30.0909C322.2 31.9286 323.686 34.1096 324.698 36.5094C325.711 38.9091 326.23 41.4806 326.226 44.0767V44.0767Z" fill="#9F3692"/>
<path opacity="0.99" d="M321.669 36.0132C322.532 35.8236 323.291 35.3251 323.798 34.6157C323.341 33.7939 322.825 33.0047 322.255 32.2539C322.034 32.8553 321.59 33.3539 321.012 33.6514C319.77 34.1406 317.855 31.4853 316.627 31.1639C314.37 30.549 311.47 32.757 310.285 29.9201C309.65 28.1867 309.261 26.3765 309.128 24.5398C308.3 24.4134 307.465 24.3433 306.628 24.3302C307.028 27.4885 307.099 30.7726 309.485 32.9527C310.104 33.53 310.916 33.8676 311.77 33.903C312.999 33.903 315.056 33.1064 316.17 33.5676C318.327 34.5179 318.884 36.5163 321.669 36.0132Z" fill="#5E1B59"/>
<path opacity="0.99" d="M325.74 39.7305V39.8423C325.434 40.3242 325.015 40.7286 324.519 41.0224C324.023 41.3163 323.462 41.4913 322.884 41.5332C320.384 41.5332 318.027 40.4152 315.598 39.968C314.799 39.8143 314.441 38.892 313.599 38.7243C312.756 38.5023 311.859 38.5816 311.07 38.9479C309.369 39.7519 307.436 39.9544 305.599 39.5209C303.771 39.0597 303.5 35.6358 303.185 34.2244C302.689 31.09 301.915 28.0039 300.871 25.001C300.078 25.2114 299.301 25.4728 298.543 25.7836C300.214 29.3472 300.314 33.4977 301.4 37.4665C302.485 41.4354 304.842 42.2599 308.628 42.0922C309.442 42.0922 310.742 42.204 311.485 41.687C312.699 40.8065 313.07 41.3935 314.142 42.1481C315.282 42.5757 316.472 42.8666 317.684 43.0146C318.999 43.3837 320.341 43.6547 321.698 43.8251C322.504 43.9737 323.333 43.9507 324.129 43.7578C324.925 43.5649 325.67 43.2065 326.312 42.7071C326.196 41.7026 326.005 40.7077 325.74 39.7305V39.7305Z" fill="#5E1B59"/>
<path opacity="0.99" d="M307.785 58.0376C306.967 57.1267 305.952 56.4058 304.814 55.9274C303.957 55.606 302.285 56.5423 302.085 55.5641C301.685 53.6635 299.471 53.2722 297.8 52.7691C296.624 52.4544 295.54 51.8728 294.637 51.0715C293.733 50.2702 293.036 49.2719 292.601 48.1574C291.701 46.3267 291.058 44.3702 290.229 42.5675C289.496 40.889 288.261 39.4666 286.687 38.4868C286.428 39.3014 286.228 40.1326 286.087 40.9743C286.315 41.17 286.544 41.3656 286.758 41.5892C288.187 42.9867 288.687 45.2786 289.415 47.0674C290.17 49.3752 291.433 51.4931 293.115 53.2722C294.886 54.9073 297.629 55.1868 299.743 56.165C299.897 56.7857 300.147 57.3795 300.486 57.9259C301.328 58.7643 302.814 58.4848 303.842 58.373C305.185 58.2473 307.385 61.2938 308.228 62.1602C308.727 62.6616 309.262 63.1286 309.828 63.5577C310.842 63.3665 311.84 63.1002 312.813 62.7611C310.956 61.3824 309.268 59.7973 307.785 58.0376Z" fill="#5E1B59"/>
<path opacity="0.99" d="M324.855 47.0394C324.312 47.0372 323.774 47.1511 323.281 47.3732C322.787 47.5952 322.35 47.9201 321.998 48.3251C321.069 49.3872 321.426 50.8126 319.784 50.9663C318.798 51.0642 318.227 50.044 317.684 49.4291C316.975 48.6658 316.014 48.171 314.97 48.0316C313.879 47.8159 312.746 47.9686 311.756 48.4649C310.842 49.0378 310.242 50.1279 309.228 50.4772C306.371 51.4834 302.528 46.9835 300.657 45.2926C298.786 43.6016 298.6 39.8424 298.371 37.285C298.295 34.9196 297.727 32.5943 296.7 30.4513C296.152 29.4478 295.369 28.5858 294.415 27.9358C293.674 28.4395 292.973 28.9953 292.315 29.5988C293.177 30.1559 293.911 30.8842 294.467 31.7365C295.023 32.5888 295.39 33.5459 295.543 34.5459C296.186 37.6343 296.015 40.7787 296.972 43.8252C297.743 46.3267 299.828 47.8779 301.757 49.499C304.171 51.4974 306.999 53.8452 310.327 52.6713C311.224 52.2425 312.006 51.6158 312.613 50.8406C313.841 49.5968 315.541 50.7008 316.384 51.693C317.813 53.2862 320.669 54.2644 322.455 52.6573C323.455 51.7769 323.226 49.6807 324.84 49.471H325.469C325.696 48.6813 325.872 47.8785 325.997 47.0674L324.855 47.0394Z" fill="#5E1B59"/>
<g style="mix-blend-mode:multiply" opacity="0.5">
<path d="M309.842 55.8296C306.834 55.8315 303.863 55.1756 301.148 53.9098C298.432 52.644 296.04 50.8004 294.146 48.5138C292.252 46.2271 290.905 43.5553 290.203 40.6937C289.5 37.832 289.461 34.853 290.087 31.9745C288.222 34.3212 286.922 37.0493 286.284 39.9557C285.646 42.862 285.687 45.8717 286.403 48.7606C287.119 51.6495 288.492 54.3431 290.42 56.6408C292.347 58.9385 294.78 60.7811 297.537 62.0313C300.293 63.2816 303.303 63.9073 306.341 63.8619C309.379 63.8165 312.367 63.101 315.084 61.7689C317.8 60.4368 320.174 58.5223 322.029 56.168C323.884 53.8137 325.172 51.0803 325.798 48.1713C323.912 50.5544 321.493 52.4836 318.728 53.811C315.962 55.1385 312.923 55.8289 309.842 55.8296V55.8296Z" fill="#7A2974"/>
</g>
<path opacity="0.99" d="M103.462 154.254C104.202 154.318 104.938 154.096 105.514 153.637C106.09 153.178 106.461 152.517 106.547 151.795C106.542 151.566 106.498 151.339 106.418 151.124C104.428 151.487 102.459 151.954 100.519 152.522C100.774 153.067 101.191 153.524 101.717 153.833C102.242 154.142 102.85 154.289 103.462 154.254V154.254Z" fill="#449ECC"/>
<path opacity="0.99" d="M138.93 199.072C138.994 199.383 138.959 199.705 138.83 199.996C138.7 200.286 138.481 200.53 138.204 200.695C137.926 200.859 137.604 200.935 137.281 200.913C136.957 200.891 136.649 200.771 136.398 200.571C136.146 200.371 135.965 200.099 135.877 199.794C135.79 199.489 135.801 199.164 135.909 198.866C136.018 198.567 136.218 198.308 136.482 198.125C136.747 197.942 137.063 197.843 137.387 197.842C137.757 197.811 138.125 197.921 138.413 198.151C138.701 198.381 138.886 198.711 138.93 199.072Z" fill="#6F8B5C"/>
<path opacity="0.99" d="M128.688 164.037C128.767 164.424 128.723 164.825 128.56 165.186C128.398 165.547 128.125 165.85 127.78 166.054C127.435 166.257 127.034 166.352 126.631 166.324C126.229 166.296 125.846 166.148 125.533 165.898C125.221 165.649 124.994 165.312 124.885 164.932C124.776 164.552 124.79 164.149 124.924 163.777C125.058 163.405 125.306 163.083 125.635 162.854C125.964 162.625 126.356 162.502 126.759 162.5C127.222 162.46 127.682 162.599 128.042 162.886C128.402 163.173 128.634 163.586 128.688 164.037Z" fill="#449ECC"/>
<path opacity="0.99" d="M172.541 205.277C172.541 216.167 169.24 226.812 163.056 235.867C156.872 244.922 148.082 251.979 137.798 256.146C127.514 260.314 116.198 261.404 105.281 259.28C94.3633 257.155 84.3351 251.911 76.4641 244.211C68.5932 236.51 63.233 226.699 61.0614 216.019C58.8898 205.338 60.0044 194.267 64.2641 184.206C68.5238 174.145 75.7374 165.545 84.9927 159.495C94.2479 153.445 105.129 150.216 116.26 150.216C123.651 150.216 130.97 151.64 137.798 154.407C144.626 157.174 150.83 161.23 156.057 166.343C161.283 171.456 165.428 177.525 168.257 184.206C171.085 190.886 172.541 198.046 172.541 205.277V205.277Z" fill="#449ECC"/>
<path opacity="0.99" d="M68.522 176.209L68.9505 177.886C72.8062 182.612 76.1971 187.684 79.0781 193.035C79.0781 193.035 82.6635 197.702 77.8925 198.862C77.8925 198.862 71.336 208.77 83.2491 207.61C83.2491 207.61 86.8202 200.036 92.7768 205.277C92.7768 205.277 99.919 213.438 108.861 212.264C108.861 212.264 121.374 213.438 121.374 218.092C121.374 218.092 124.345 222.172 118.389 225.079C118.389 225.079 116.003 232.066 121.96 230.32C121.96 230.32 130.302 226.239 129.702 219.251C129.702 219.251 135.658 222.158 138.044 216.918C138.044 216.918 136.858 215.171 127.331 208.169C127.331 208.169 107.075 202.342 112.432 194.195C112.432 194.195 116.603 180.22 129.702 187.78C129.702 187.78 149.957 193.021 143.401 173.218C143.401 173.218 144.6 155.736 116.26 150.202C106.699 150.205 97.2963 152.596 88.9426 157.147C80.5889 161.698 73.5604 168.259 68.522 176.209V176.209Z" fill="#6F8B5C"/>
<path opacity="0.99" d="M169.355 223.654C158.042 215.828 139.23 224.506 139.23 224.506C132.087 226.253 136.259 232.667 136.259 232.667C142.215 233.24 136.858 243.149 136.858 243.149C132.173 247.341 133.802 253.071 135.816 256.942C143.554 254.13 150.568 249.692 156.363 243.94C162.157 238.189 166.593 231.264 169.355 223.654Z" fill="#6F8B5C"/>
<path opacity="0.99" d="M163.741 194.25C160.67 196.137 155.485 193.468 152.157 188.297C148.829 183.126 148.6 177.411 151.657 175.524C154.714 173.637 159.899 176.293 163.241 181.463C166.584 186.634 166.827 192.35 163.741 194.25Z" fill="#6F8B5C"/>
<g style="mix-blend-mode:multiply" opacity="0.5">
<path d="M128.731 244.714C119.053 244.723 109.537 242.292 101.1 237.654C92.6632 233.017 85.5908 226.33 80.5655 218.239C75.5402 210.147 72.7317 200.926 72.4111 191.463C72.0906 182.001 74.2687 172.617 78.7354 164.219C72.5838 169.595 67.7153 176.228 64.4747 183.649C61.234 191.071 59.7004 199.098 59.9824 207.163C60.2643 215.228 62.3549 223.134 66.1063 230.322C69.8576 237.509 75.1779 243.801 81.6906 248.754C88.2033 253.706 95.7491 257.198 103.794 258.981C111.839 260.764 120.186 260.795 128.244 259.073C136.303 257.35 143.876 253.915 150.427 249.012C156.979 244.108 162.348 237.856 166.156 230.697C155.872 239.72 142.545 244.712 128.731 244.714V244.714Z" fill="#4A3EDD"/>
</g>
<path opacity="0.99" d="M538.22 150.062C538.22 150.062 537.806 155.722 532.735 155.722C532.735 155.722 538.306 156.462 538.349 161.759C538.349 161.759 538.591 156.169 543.791 155.834C543.748 155.806 538.22 154.855 538.22 150.062Z" fill="white"/>
<path opacity="0.99" d="M385.777 358.19C385.777 358.19 385.463 362.382 381.664 362.382C382.814 362.509 383.88 363.036 384.666 363.867C385.453 364.698 385.908 365.778 385.949 366.91C385.949 366.91 386.12 362.717 390.034 362.466C389.963 362.48 385.777 361.809 385.777 358.19Z" fill="white"/>
<path opacity="0.99" d="M394.048 334.418C394.048 334.418 393.577 340.791 387.877 340.791C387.877 340.791 394.148 341.629 394.191 347.583C394.191 347.583 394.463 341.322 400.319 340.931C400.319 340.931 394.048 339.855 394.048 334.418Z" fill="white"/>
<path opacity="0.99" d="M546.119 430.565C546.119 430.565 545.805 434.758 541.991 434.758C543.139 434.89 544.202 435.419 544.987 436.249C545.773 437.079 546.23 438.155 546.277 439.286C546.277 439.286 546.448 435.093 550.362 434.842C550.305 434.898 546.119 434.185 546.119 430.565Z" fill="white"/>
<path opacity="0.99" d="M434.901 172.268C434.901 172.268 434.587 176.53 430.773 176.53C431.921 176.663 432.984 177.191 433.769 178.021C434.555 178.851 435.012 179.928 435.059 181.058C435.059 181.058 435.23 176.866 439.144 176.614C439.087 176.614 434.901 175.902 434.901 172.268Z" fill="white"/>
<path opacity="0.99" d="M384.635 25.6858C384.635 25.6858 384.321 29.8783 380.521 29.8783C381.659 30.0204 382.707 30.554 383.479 31.3837C384.252 32.2133 384.697 33.2847 384.735 34.4061C384.735 34.4061 384.906 30.2136 388.82 29.9621C388.82 29.9621 384.635 29.2494 384.635 25.6858Z" fill="white"/>
<path opacity="0.99" d="M190.639 193.23C190.639 193.23 190.325 197.493 186.511 197.493C187.659 197.625 188.721 198.153 189.507 198.983C190.292 199.813 190.75 200.89 190.796 202.021C190.796 202.021 190.967 197.828 194.881 197.577C194.824 197.577 190.639 196.864 190.639 193.23Z" fill="white"/>
<path opacity="0.99" d="M33.511 218.385C33.511 218.385 33.1967 222.647 29.3828 222.647C30.5311 222.78 31.5935 223.308 32.379 224.138C33.1645 224.968 33.6216 226.045 33.6681 227.175C33.6681 227.175 33.8395 222.983 37.7534 222.731C37.6963 222.731 33.511 222.019 33.511 218.385Z" fill="white"/>
<path opacity="0.99" d="M343.482 151.012C343.482 151.012 343.253 154.199 340.396 154.199C341.249 154.305 342.036 154.705 342.615 155.327C343.193 155.95 343.526 156.754 343.553 157.595C343.553 157.595 343.696 154.464 346.624 154.268C346.624 154.255 343.482 153.723 343.482 151.012Z" fill="white"/>
<path opacity="0.99" d="M101.519 417.485C101.519 417.485 101.119 422.921 96.248 422.921C96.248 422.921 101.605 423.634 101.648 428.721C101.648 428.721 101.876 423.382 106.876 423.033C106.833 423.033 101.519 422.111 101.519 417.485Z" fill="white"/>
<path opacity="0.99" d="M85.5633 388.459C85.5633 388.459 84.892 397.529 76.7642 397.529C76.7642 397.529 85.7062 398.717 85.7633 407.186C85.7633 407.186 86.149 398.284 94.4768 397.711C94.4768 397.711 85.5633 396.173 85.5633 388.459Z" fill="white"/>
<path opacity="0.99" d="M517.508 129.1C517.508 129.1 516.879 137.597 509.266 137.597C509.266 137.597 517.636 138.715 517.694 146.652C517.694 146.652 518.051 138.267 525.864 137.778C525.864 137.778 517.508 136.339 517.508 129.1Z" fill="white"/>
<path opacity="0.99" d="M536.892 416.87C536.892 416.87 536.42 423.243 530.721 423.243C530.721 423.243 536.992 424.081 537.035 430.034C537.035 430.034 537.306 423.774 543.163 423.382C543.163 423.382 536.892 422.306 536.892 416.87Z" fill="white"/>
<path opacity="0.99" d="M367.665 35.4683C367.665 35.4683 367.193 41.8408 361.48 41.8408C361.48 41.8408 367.765 42.6793 367.808 48.6326C367.808 48.6326 368.065 42.3718 373.936 41.9806C373.95 41.9806 367.665 40.8905 367.665 35.4683Z" fill="white"/>
<path opacity="0.99" d="M553.647 404.349C559.958 404.349 565.075 399.343 565.075 393.169C565.075 386.994 559.958 381.989 553.647 381.989C547.336 381.989 542.22 386.994 542.22 393.169C542.22 399.343 547.336 404.349 553.647 404.349Z" fill="#200B46"/>
<path opacity="0.99" d="M43.053 352.991C49.3642 352.991 54.4805 347.986 54.4805 341.811C54.4805 335.637 49.3642 330.631 43.053 330.631C36.7417 330.631 31.6255 335.637 31.6255 341.811C31.6255 347.986 36.7417 352.991 43.053 352.991Z" fill="#200B46"/>
<path opacity="0.99" d="M28.7688 266.347C35.08 266.347 40.1963 261.341 40.1963 255.167C40.1963 248.992 35.08 243.987 28.7688 243.987C22.4576 243.987 17.3413 248.992 17.3413 255.167C17.3413 261.341 22.4576 266.347 28.7688 266.347Z" fill="#200B46"/>
<path opacity="0.99" d="M557.29 199.268C562.023 199.268 565.86 195.514 565.86 190.883C565.86 186.252 562.023 182.498 557.29 182.498C552.556 182.498 548.719 186.252 548.719 190.883C548.719 195.514 552.556 199.268 557.29 199.268Z" fill="#200B46"/>
<path opacity="0.99" d="M443.015 361.376C446.565 361.376 449.443 358.56 449.443 355.087C449.443 351.614 446.565 348.799 443.015 348.799C439.465 348.799 436.587 351.614 436.587 355.087C436.587 358.56 439.465 361.376 443.015 361.376Z" fill="#200B46"/>
<path opacity="0.99" d="M54.4804 276.297C56.9418 276.297 58.9371 274.345 58.9371 271.937C58.9371 269.529 56.9418 267.577 54.4804 267.577C52.019 267.577 50.0237 269.529 50.0237 271.937C50.0237 274.345 52.019 276.297 54.4804 276.297Z" fill="#200B46"/>
<path opacity="0.99" d="M531.578 403.301C531.578 403.956 531.379 404.596 531.007 405.141C530.635 405.685 530.107 406.11 529.488 406.361C528.869 406.611 528.189 406.677 527.532 406.549C526.875 406.421 526.272 406.106 525.799 405.643C525.325 405.179 525.003 404.589 524.872 403.947C524.742 403.304 524.809 402.638 525.065 402.033C525.321 401.428 525.755 400.911 526.312 400.547C526.868 400.183 527.523 399.989 528.193 399.989C529.09 399.989 529.951 400.337 530.586 400.959C531.221 401.58 531.578 402.422 531.578 403.301V403.301Z" fill="#200B46"/>
<path opacity="0.99" d="M189.553 115.46C178.283 117.934 167.584 119.848 159.428 120.841C156.312 121.267 153.173 121.505 150.028 121.553C147.286 121.553 146.029 121.162 145.829 120.296C145.629 119.429 146.6 118.563 149.071 117.403C151.937 116.128 154.881 115.026 157.885 114.105C165.684 111.589 176.183 108.836 187.468 106.349C198.752 103.861 209.437 101.961 217.593 100.968C220.709 100.542 223.848 100.304 226.993 100.256C229.735 100.256 230.992 100.647 231.192 101.513C231.392 102.38 230.407 103.246 227.935 104.406C225.075 105.684 222.137 106.786 219.136 107.704C211.337 110.22 200.838 112.973 189.553 115.46ZM146.9 120.058C147.114 120.24 148.771 121.106 159.913 119.723C167.941 118.716 178.397 116.83 189.325 114.426C200.252 112.022 210.508 109.339 218.208 106.894C228.878 103.484 230.007 102.002 230.121 101.751C229.907 101.569 228.235 100.703 217.108 102.086C209.08 103.106 198.624 104.979 187.696 107.383C176.769 109.786 166.513 112.456 158.799 114.915C148.143 118.325 147.014 119.806 146.9 120.058Z" fill="#DB9F7D"/>
<path opacity="0.99" d="M146.9 120.044C146.986 119.89 147.443 119.317 149.871 118.199C152.775 116.926 155.757 115.829 158.799 114.915C166.513 112.456 176.769 109.786 187.696 107.383C198.624 104.979 209.123 103.106 217.108 102.086C228.05 100.689 229.85 101.541 230.107 101.737C230.107 100.801 229.764 100.339 227.25 100.339H226.921C223.776 100.388 220.637 100.626 217.522 101.052C209.366 102.044 198.667 103.959 187.396 106.433C176.126 108.906 165.613 111.673 157.814 114.189C154.809 115.11 151.866 116.212 149 117.487L148.772 117.598C146.6 118.619 146.457 119.471 146.9 120.044Z" fill="#7B4C30"/>
<path opacity="0.99" d="M207.295 108.501C207.295 112.219 206.167 115.854 204.056 118.945C201.944 122.036 198.943 124.445 195.431 125.868C191.92 127.29 188.056 127.661 184.329 126.935C180.601 126.208 177.178 124.417 174.492 121.787C171.805 119.157 169.977 115.806 169.237 112.159C168.497 108.512 168.88 104.732 170.336 101.298C171.793 97.8638 174.257 94.9292 177.419 92.8655C180.58 90.8019 184.296 89.7018 188.096 89.7046C190.619 89.7046 193.116 90.1909 195.446 91.1356C197.777 92.0804 199.894 93.4651 201.677 95.2107C203.459 96.9563 204.873 99.0285 205.837 101.309C206.801 103.589 207.296 106.033 207.295 108.501V108.501Z" fill="#DB9F7D"/>
<path opacity="0.99" d="M169.155 105.342L168.898 108.794C168.898 109.102 168.898 109.409 168.898 109.717C172.041 108.095 176.926 107.369 178.726 103.847C180.04 100.773 178.254 96.8597 175.612 94.1765C172.192 97.0456 169.907 100.996 169.155 105.342V105.342Z" fill="#7B4C30"/>
<path opacity="0.99" d="M188.096 117.165C183.668 111.505 178.44 117.04 174.341 121.609C176.129 123.407 178.268 124.835 180.631 125.81C182.994 126.785 185.532 127.285 188.096 127.283C188.87 127.278 189.642 127.232 190.41 127.143C189.682 123.859 190.496 120.1 188.096 117.165Z" fill="#7B4C30"/>
<path opacity="0.99" d="M188.096 97.2091L185.968 96.8038C181.297 103.037 184.268 103.861 188.096 107.606C189.368 109.269 193.624 115.502 195.31 115.921C204.238 118.409 200.838 97.6283 188.096 97.2091Z" fill="#7B4C30"/>
<path opacity="0.99" d="M204.423 98.6206C202.706 95.8944 200.304 93.6437 197.446 92.083C194.588 90.5222 191.369 89.7034 188.096 89.7046H187.982C189.41 91.3257 192.196 91.8288 194.467 93.0586C197.252 94.6238 201.109 99.0817 204.423 98.6206Z" fill="#7B4C30"/>
<path opacity="0.99" d="M201.266 117.99C201.01 119.277 201.129 120.609 201.609 121.833C203.419 120.093 204.856 118.018 205.837 115.729C206.818 113.44 207.323 110.983 207.323 108.501C207.323 108.333 207.323 108.165 207.323 108.012C204.442 110.758 202.352 114.2 201.266 117.99Z" fill="#7B4C30"/>
<g style="mix-blend-mode:multiply" opacity="0.5">
<path d="M191.282 119.862C188.427 119.856 185.61 119.227 183.035 118.022C180.46 116.816 178.193 115.063 176.397 112.892C174.602 110.721 173.324 108.185 172.657 105.47C171.99 102.754 171.95 99.9274 172.541 97.1951C170.77 99.4268 169.536 102.021 168.932 104.784C168.328 107.546 168.368 110.407 169.051 113.152C169.733 115.898 171.04 118.457 172.874 120.64C174.708 122.823 177.021 124.572 179.642 125.759C182.263 126.946 185.124 127.538 188.012 127.493C190.899 127.448 193.739 126.766 196.32 125.498C198.901 124.231 201.156 122.409 202.918 120.17C204.679 117.932 205.902 115.333 206.495 112.567C204.699 114.842 202.394 116.682 199.756 117.947C197.118 119.212 194.219 119.867 191.282 119.862V119.862Z" fill="#776429"/>
</g>
<path opacity="0.99" d="M189.325 114.426C178.397 116.83 167.898 118.716 159.913 119.723C158.642 119.876 157.514 120.002 156.5 120.1L156.728 121.148L159.428 120.841C167.584 119.848 178.283 117.934 189.554 115.46C199.553 113.266 208.795 110.876 216.208 108.613L215.98 107.592C208.58 109.842 199.224 112.246 189.325 114.426Z" fill="#DB9F7D"/>
<path opacity="0.99" d="M404.628 551.27C404.628 551.27 391.764 495.576 340.309 512.339C340.309 512.339 385.418 474.47 344.368 460.752C344.368 460.752 319.184 311.497 310.065 261L292.914 269.381C292.914 269.381 275.762 403.481 241.702 529.101C241.702 529.101 216.46 537.301 210 573.717C284.176 596.36 364.438 590.098 434 556.242C428.983 552.345 417.163 545.165 404.628 551.27Z" fill="#EFF4FB"/>
<path opacity="0.99" d="M266.146 349.609C265.216 351.817 263.429 353.574 261.178 354.496C258.926 355.418 256.393 355.429 254.133 354.528V354.528C251.874 353.621 250.075 351.874 249.133 349.67C248.19 347.466 248.18 344.986 249.105 342.775L261.004 314.351C261.46 313.256 262.132 312.259 262.983 311.419C263.833 310.579 264.845 309.911 265.959 309.454C267.074 308.997 268.27 308.76 269.479 308.756C270.687 308.752 271.885 308.982 273.002 309.431V309.431C275.26 310.336 277.06 312.08 278.005 314.281C278.95 316.481 278.965 318.959 278.045 321.17L266.146 349.609Z" fill="#EFF4FB"/>
<g style="mix-blend-mode:multiply" opacity="0.5">
<path d="M266.146 349.609C265.216 351.817 263.429 353.574 261.178 354.496C258.926 355.418 256.393 355.429 254.133 354.528V354.528C251.874 353.621 250.075 351.874 249.133 349.67C248.19 347.466 248.18 344.986 249.105 342.775L261.004 314.351C261.46 313.256 262.132 312.259 262.983 311.419C263.833 310.579 264.845 309.911 265.959 309.454C267.074 308.997 268.27 308.76 269.479 308.756C270.687 308.752 271.885 308.982 273.002 309.431V309.431C275.26 310.336 277.06 312.08 278.005 314.281C278.95 316.481 278.965 318.959 278.045 321.17L266.146 349.609Z" fill="#C47D20"/>
</g>
<path opacity="0.99" d="M331.925 350.126C332.384 351.22 333.059 352.215 333.912 353.054C334.764 353.893 335.777 354.559 336.893 355.015C338.008 355.47 339.205 355.706 340.414 355.709C341.623 355.712 342.821 355.482 343.939 355.031V355.031C345.058 354.585 346.076 353.927 346.935 353.095C347.794 352.263 348.476 351.273 348.943 350.183C349.41 349.092 349.653 347.922 349.657 346.74C349.661 345.558 349.426 344.386 348.967 343.292L337.054 314.867C336.596 313.774 335.922 312.779 335.072 311.94C334.221 311.1 333.21 310.433 332.096 309.977C330.981 309.52 329.786 309.282 328.578 309.277C327.37 309.273 326.173 309.501 325.055 309.948V309.948C323.935 310.396 322.916 311.055 322.058 311.889C321.199 312.722 320.516 313.713 320.049 314.805C319.582 315.896 319.34 317.067 319.336 318.251C319.332 319.434 319.567 320.607 320.027 321.701L331.925 350.126Z" fill="#EFF4FB"/>
<path opacity="0.99" d="M354.866 246.489C354.866 298.755 300.028 360.915 300.028 360.915C300.028 360.915 245.162 298.783 245.148 246.489C245.134 194.195 269.688 151.851 299.986 151.851C330.283 151.851 354.866 194.251 354.866 246.489Z" fill="#FFDD92"/>
<path opacity="0.99" d="M340.439 249.284C340.442 257.106 338.074 264.753 333.634 271.258C329.194 277.763 322.883 282.835 315.497 285.831C308.112 288.827 299.984 289.613 292.142 288.089C284.299 286.566 277.095 282.802 271.44 277.273C265.784 271.744 261.931 264.698 260.369 257.027C258.806 249.356 259.604 241.404 262.661 234.176C265.718 226.948 270.897 220.77 277.543 216.422C284.19 212.074 292.005 209.752 300 209.749C305.308 209.747 310.565 210.768 315.471 212.754C320.376 214.74 324.833 217.651 328.589 221.322C332.344 224.994 335.323 229.352 337.356 234.15C339.389 238.948 340.437 244.09 340.439 249.284Z" fill="#EFF4FB"/>
<path opacity="0.99" d="M331.768 249.284C331.771 255.431 329.91 261.442 326.421 266.554C322.932 271.667 317.972 275.653 312.167 278.008C306.362 280.362 299.974 280.98 293.811 279.782C287.648 278.584 281.986 275.625 277.541 271.279C273.097 266.933 270.07 261.395 268.843 255.366C267.616 249.337 268.244 243.087 270.648 237.407C273.052 231.727 277.124 226.872 282.349 223.456C287.573 220.041 293.716 218.217 300 218.217C308.423 218.217 316.501 221.49 322.458 227.316C328.416 233.141 331.765 241.043 331.768 249.284V249.284Z" fill="#031B90"/>
<g style="mix-blend-mode:multiply" opacity="0.5">
<g style="mix-blend-mode:multiply" opacity="0.5">
<path d="M331.726 250.276C330.369 249.465 328.969 248.669 327.44 247.928C315.884 243.736 301.457 249.326 292.786 240.941C287.615 236.594 285.859 229.286 285.744 221.669C280.727 224.132 276.467 227.852 273.398 232.451C270.328 237.049 268.56 242.361 268.273 247.845C267.985 253.33 269.189 258.791 271.761 263.672C274.334 268.553 278.183 272.68 282.916 275.632C287.65 278.584 293.098 280.256 298.707 280.477C304.316 280.698 309.884 279.461 314.845 276.89C319.806 274.32 323.982 270.51 326.947 265.847C329.912 261.184 331.561 255.835 331.726 250.346V250.276Z" fill="#C47D20"/>
</g>
</g>
<path opacity="0.99" d="M340.439 249.284C340.442 257.106 338.074 264.753 333.634 271.258C329.194 277.763 322.883 282.835 315.497 285.831C308.112 288.827 299.984 289.613 292.142 288.089C284.299 286.566 277.095 282.802 271.44 277.273C265.784 271.744 261.931 264.698 260.369 257.027C258.806 249.356 259.604 241.404 262.661 234.176C265.718 226.948 270.897 220.77 277.543 216.422C284.19 212.074 292.005 209.752 300 209.749C305.308 209.747 310.565 210.768 315.471 212.754C320.376 214.74 324.833 217.651 328.589 221.322C332.344 224.994 335.323 229.352 337.356 234.15C339.389 238.948 340.437 244.09 340.439 249.284Z" fill="#EFF4FB"/>
<path opacity="0.99" d="M331.768 249.284C331.771 255.431 329.91 261.442 326.421 266.554C322.932 271.667 317.972 275.653 312.167 278.008C306.362 280.362 299.974 280.98 293.811 279.782C287.648 278.584 281.986 275.625 277.541 271.279C273.097 266.933 270.07 261.395 268.843 255.366C267.616 249.337 268.244 243.087 270.648 237.407C273.052 231.727 277.124 226.872 282.349 223.456C287.573 220.041 293.716 218.217 300 218.217C308.423 218.217 316.501 221.49 322.458 227.316C328.416 233.141 331.765 241.043 331.768 249.284V249.284Z" fill="#031B90"/>
<g style="mix-blend-mode:multiply" opacity="0.5">
<g style="mix-blend-mode:multiply" opacity="0.5">
<path d="M331.726 250.276C330.369 249.465 328.969 248.669 327.44 247.928C315.884 243.736 301.457 249.326 292.786 240.941C287.615 236.594 285.859 229.286 285.744 221.669C280.727 224.132 276.467 227.852 273.398 232.451C270.328 237.049 268.56 242.361 268.273 247.845C267.985 253.33 269.189 258.791 271.761 263.672C274.334 268.553 278.183 272.68 282.916 275.632C287.65 278.584 293.098 280.256 298.707 280.477C304.316 280.698 309.884 279.461 314.845 276.89C319.806 274.32 323.982 270.51 326.947 265.847C329.912 261.184 331.561 255.835 331.726 250.346V250.276Z" fill="#C47D20"/>
</g>
</g>
<g style="mix-blend-mode:multiply" opacity="0.5">
<path d="M275.502 224.129C275.402 199.799 287.201 173.302 299.786 151.907C269.56 152.074 245.105 194.376 245.105 246.544C245.105 298.713 299.986 360.943 299.986 360.943C311.275 347.654 321.419 333.472 330.311 318.543C300.214 318.319 275.688 276.171 275.502 224.129Z" fill="#C47D20"/>
</g>
<path opacity="0.99" d="M271.289 166.399C280.143 171.572 290.287 174.25 300.6 174.137C310.913 174.024 320.993 171.123 329.726 165.756C326.983 146.373 314.956 131.769 300.529 131.769C286.101 131.769 273.831 146.694 271.289 166.399Z" fill="#C47D20"/>
<path opacity="0.99" d="M309.042 356.331C309.054 357.446 308.837 358.553 308.407 359.585C307.976 360.618 307.338 361.556 306.532 362.344C305.726 363.133 304.767 363.756 303.712 364.178C302.657 364.6 301.526 364.811 300.386 364.8V364.8C298.09 364.8 295.888 363.908 294.265 362.319C292.641 360.731 291.729 358.577 291.729 356.331V322.428C291.737 320.182 292.653 318.03 294.278 316.443C295.903 314.856 298.104 313.963 300.4 313.959V313.959C302.696 313.959 304.898 314.851 306.521 316.44C308.144 318.028 309.056 320.182 309.056 322.428L309.042 356.331Z" fill="#FFDD92"/>
<g style="mix-blend-mode:multiply" opacity="0.5">
<path d="M286.273 162.136C286.273 149.964 293.172 139.12 303.914 132.062C302.795 131.88 301.663 131.782 300.529 131.769C285.944 131.769 273.831 146.694 271.289 166.399C276.509 169.526 282.247 171.739 288.244 172.939C286.968 169.473 286.302 165.82 286.273 162.136V162.136Z" fill="#C47D20"/>
</g>
<path opacity="0.99" d="M310.813 133.502C310.813 134.917 310.244 136.275 309.228 137.282C308.212 138.289 306.831 138.864 305.385 138.882H296.186C295.462 138.882 294.745 138.743 294.076 138.472C293.407 138.2 292.799 137.803 292.287 137.302C291.775 136.801 291.369 136.207 291.092 135.552C290.815 134.898 290.672 134.196 290.672 133.488L295.086 116.592C295.086 115.162 295.667 113.79 296.701 112.778C297.735 111.766 299.138 111.198 300.6 111.198H301.328C302.053 111.198 302.77 111.338 303.438 111.609C304.107 111.88 304.715 112.277 305.227 112.778C305.739 113.279 306.145 113.874 306.423 114.528C306.7 115.182 306.842 115.884 306.842 116.592L310.813 133.502Z" fill="#EFF4FB"/>
<g style="mix-blend-mode:multiply" opacity="0.5">
<path d="M302.7 111.422C302.235 111.29 301.755 111.219 301.271 111.212H300.543C299.081 111.212 297.678 111.78 296.644 112.792C295.61 113.803 295.029 115.176 295.029 116.606L290.615 133.502C290.619 134.834 291.128 136.118 292.044 137.104C292.96 138.09 294.217 138.709 295.572 138.84L302.7 111.422Z" fill="#C47D20"/>
</g>
<path opacity="0.99" d="M302.628 472.211C325.883 485.752 334.654 513.269 322.227 533.7C309.799 554.131 280.902 559.679 257.647 546.138C234.392 532.596 225.636 505.079 238.063 484.648C250.49 464.217 279.388 458.669 302.628 472.211Z" fill="#EFF4FB"/>
<path opacity="0.99" d="M218.917 530.673C195.807 516.987 167.057 522.614 154.699 543.255C153.655 545 152.752 546.825 152 548.713C180.232 564.717 210.916 575.993 242.823 582.092C247.454 563.359 238.193 542.11 218.917 530.673Z" fill="#EFF4FB"/>
<path opacity="0.99" d="M254.325 508.905C234.361 501.432 209.517 504.5 198.847 515.763C188.177 527.027 195.711 542.215 215.675 549.652C216.441 549.938 217.193 550.196 217.973 550.455C225.011 551.704 232.148 552.797 239.384 553.737C252.409 553.63 264.527 549.804 271.153 542.794C281.823 531.566 274.288 516.379 254.325 508.905Z" fill="#EFF4FB"/>
<path opacity="0.99" d="M398.234 503.822C398.234 509.626 396.474 515.3 393.178 520.126C389.882 524.952 385.197 528.714 379.716 530.935C374.235 533.156 368.203 533.737 362.384 532.605C356.565 531.473 351.22 528.678 347.025 524.573C342.83 520.469 339.973 515.24 338.816 509.547C337.658 503.854 338.252 497.953 340.523 492.591C342.793 487.228 346.638 482.645 351.571 479.42C356.504 476.196 362.304 474.474 368.236 474.474C376.192 474.474 383.822 477.566 389.448 483.07C395.073 488.574 398.234 496.038 398.234 503.822V503.822Z" fill="#EFF4FB"/>
<path opacity="0.99" d="M422.195 501.6C413.452 501.597 404.88 503.969 397.436 508.452C389.991 512.935 383.967 519.353 380.037 526.989C376.106 534.625 374.422 543.178 375.175 551.695C375.927 560.212 379.085 568.357 384.296 575.221C414.064 566.748 442.303 553.799 468 536.838C465.505 526.797 459.634 517.866 451.329 511.476C443.023 505.087 432.764 501.609 422.195 501.6Z" fill="#EFF4FB"/>
<path opacity="0.99" d="M469.655 523.261C469.496 523.261 469.342 523.209 469.217 523.113C469.093 523.016 469.005 522.881 468.97 522.73C461.57 495.618 436.516 493.452 436.273 493.382C436.179 493.375 436.087 493.35 436.003 493.308C435.919 493.267 435.845 493.209 435.784 493.139C435.723 493.069 435.676 492.987 435.648 492.9C435.619 492.812 435.608 492.72 435.616 492.628C435.621 492.537 435.645 492.447 435.686 492.365C435.728 492.283 435.785 492.21 435.856 492.15C435.926 492.09 436.008 492.045 436.097 492.016C436.186 491.988 436.28 491.977 436.373 491.985C436.63 491.985 462.685 494.221 470.341 522.324C470.389 522.502 470.364 522.692 470.27 522.851C470.176 523.011 470.022 523.128 469.841 523.177L469.655 523.261Z" fill="#EFF4FB"/>
<path opacity="0.99" d="M143.972 531.646C143.846 531.643 143.723 531.609 143.615 531.548C143.452 531.452 143.333 531.297 143.285 531.117C143.237 530.937 143.263 530.745 143.358 530.584C143.486 530.36 157.242 507.888 184.068 511.62C184.162 511.632 184.252 511.663 184.334 511.71C184.415 511.757 184.487 511.82 184.544 511.893C184.601 511.967 184.642 512.052 184.666 512.141C184.69 512.231 184.695 512.324 184.682 512.416C184.669 512.508 184.638 512.596 184.59 512.676C184.542 512.756 184.478 512.826 184.402 512.882C184.327 512.937 184.241 512.978 184.149 513.001C184.057 513.025 183.962 513.03 183.868 513.017C157.985 509.398 144.715 531.087 144.586 531.31C144.522 531.413 144.432 531.498 144.324 531.557C144.216 531.616 144.095 531.646 143.972 531.646Z" fill="#EFF4FB"/>
<path opacity="0.99" d="M348.738 448.719C348.571 448.721 348.408 448.664 348.28 448.559C348.151 448.454 348.066 448.307 348.038 448.146L337.568 391.31C337.536 391.125 337.58 390.935 337.691 390.781C337.802 390.628 337.971 390.524 338.161 390.493C338.35 390.461 338.545 390.504 338.701 390.613C338.858 390.722 338.964 390.887 338.996 391.072L349.467 447.894C349.485 447.984 349.485 448.077 349.466 448.167C349.447 448.257 349.41 448.342 349.357 448.418C349.303 448.494 349.235 448.558 349.156 448.607C349.077 448.657 348.988 448.69 348.895 448.705L348.738 448.719Z" fill="#EFF4FB"/>
<path opacity="0.99" d="M255.39 439.411H255.247C255.154 439.395 255.066 439.36 254.987 439.309C254.908 439.258 254.841 439.192 254.789 439.115C254.737 439.038 254.701 438.952 254.684 438.861C254.667 438.77 254.669 438.677 254.69 438.587L272.774 353.815C272.815 353.633 272.928 353.473 273.088 353.371C273.249 353.269 273.444 353.233 273.631 353.27C273.723 353.289 273.81 353.325 273.887 353.376C273.964 353.428 274.03 353.494 274.08 353.571C274.131 353.648 274.165 353.734 274.181 353.824C274.197 353.914 274.195 354.006 274.174 354.095L256.09 438.88C256.049 439.032 255.958 439.166 255.832 439.262C255.705 439.358 255.55 439.411 255.39 439.411V439.411Z" fill="#EFF4FB"/>
<path opacity="0.99" d="M251.605 459.899H251.462C251.37 459.88 251.282 459.844 251.205 459.793C251.127 459.742 251.06 459.676 251.009 459.599C250.957 459.523 250.921 459.437 250.903 459.347C250.885 459.257 250.886 459.164 250.905 459.074L252.804 449.767C252.821 449.676 252.857 449.59 252.909 449.513C252.961 449.435 253.028 449.37 253.107 449.319C253.186 449.268 253.274 449.233 253.367 449.216C253.46 449.2 253.555 449.202 253.647 449.222C253.739 449.237 253.828 449.27 253.906 449.319C253.985 449.369 254.052 449.434 254.105 449.509C254.157 449.585 254.193 449.671 254.21 449.761C254.227 449.851 254.225 449.943 254.204 450.032L252.304 459.354C252.269 459.509 252.18 459.648 252.053 459.747C251.925 459.846 251.767 459.899 251.605 459.899Z" fill="#EFF4FB"/>
</g>
</g>
</g>
<defs>
<clipPath id="clip0_11_271">
<rect width="600" height="587" fill="white"/>
</clipPath>
</defs>
</svg>
