<svg width="30" height="26" viewBox="0 0 30 26" fill="none" xmlns="http://www.w3.org/2000/svg">
<path d="M26.9163 6.38545C26.9354 6.66567 26.9354 6.94596 26.9354 7.22619C26.9354 15.7735 20.7488 25.6219 9.44166 25.6219C5.95813 25.6219 2.7221 24.561 0 22.7195C0.494943 22.7795 0.970785 22.7995 1.48477 22.7995C4.3591 22.7995 7.00509 21.7787 9.11804 20.0372C6.41499 19.9771 4.14974 18.1155 3.36927 15.5533C3.75001 15.6133 4.1307 15.6534 4.53049 15.6534C5.0825 15.6534 5.63457 15.5733 6.1485 15.4332C3.33124 14.8327 1.21823 12.2305 1.21823 9.08777V9.00773C2.03673 9.48815 2.98859 9.7884 3.9974 9.82839C2.3413 8.66737 1.25631 6.6857 1.25631 4.44376C1.25631 3.24275 1.56083 2.14181 2.09386 1.18098C5.12053 5.10434 9.67006 7.66649 14.7715 7.94678C14.6764 7.46636 14.6193 6.96599 14.6193 6.46555C14.6193 2.90245 17.3604 0 20.7678 0C22.5381 0 24.137 0.780667 25.2602 2.04175C26.6497 1.76152 27.9822 1.22103 29.1625 0.480415C28.7055 1.98173 27.7348 3.24282 26.4594 4.04345C27.6967 3.90339 28.896 3.54301 30 3.04263C29.1626 4.32367 28.1156 5.4646 26.9163 6.38545V6.38545Z" fill="black"/>
</svg>
