<svg width="110" height="78" viewBox="0 0 110 78" fill="none" xmlns="http://www.w3.org/2000/svg">
<path d="M57.935 38.636C53.9107 37.5051 48.4875 42.2711 45.7854 39.2419C42.5085 35.5664 50.1355 28.0741 49.3498 21.2281C48.7174 15.6139 42.6235 12.9886 36.587 12.9482C31.8448 12.8765 27.1371 13.8084 22.7428 15.6885C18.3484 17.5686 14.3567 20.3587 11.0039 23.8938C-1.72052 37.2022 -4.46088 56.2055 8.37857 69.2918C20.279 81.4087 40.2089 77.8342 51.8219 66.4645C55.4125 62.7476 58.1747 58.2364 59.9088 53.2571C61.9785 47.4006 62.1701 39.8477 57.935 38.636V38.636ZM14.1851 29.9118C15.2231 29.4824 16.3793 29.4976 17.4069 29.9541C18.4345 30.4106 19.252 31.2724 19.6849 32.3554C19.8574 33.5162 19.5905 34.7018 18.9419 35.6574C18.2932 36.6129 17.3145 37.2619 16.2164 37.4647C15.1788 37.8996 14.0205 37.8871 12.9916 37.4299C11.9626 36.9728 11.1455 36.1076 10.7165 35.0211C10.5491 33.8612 10.818 32.6781 11.4658 31.7239C12.1136 30.7696 13.0893 30.1195 14.1851 29.9118V29.9118ZM5.88733 50.6116C5.71534 49.4479 5.98477 48.2596 6.6374 47.3035C7.29002 46.3475 8.27342 45.7004 9.37506 45.5023C10.4104 45.0736 11.5639 45.0894 12.5883 45.5461C13.6128 46.0029 14.4267 46.8643 14.8558 47.9458C15.007 49.0963 14.7306 50.2639 14.0842 51.2047C13.4379 52.1455 12.4716 52.7868 11.3872 52.9946C10.3559 53.4225 9.20743 53.4134 8.18229 52.9692C7.15715 52.5251 6.33478 51.6802 5.88733 50.6116V50.6116ZM19.3017 67.4339C18.2641 67.8687 17.1058 67.8562 16.0769 67.3991C15.0479 66.9419 14.2308 66.0767 13.8018 64.9903C13.634 63.8332 13.9002 62.6528 14.5441 61.6991C15.188 60.7453 16.1589 60.0933 17.2512 59.881C18.2892 59.4515 19.4455 59.4667 20.473 59.9232C21.5006 60.3798 22.3181 61.2416 22.7511 62.3246C22.8353 62.9082 22.8094 63.5036 22.6747 64.0766C22.5401 64.6496 22.2993 65.1889 21.9664 65.6636C21.6334 66.1384 21.2148 66.5391 20.7345 66.8429C20.2542 67.1467 19.7217 67.3475 19.1675 67.4339H19.3017ZM24.9165 25.2468C24.7492 24.0869 25.018 22.9038 25.6658 21.9496C26.3137 20.9953 27.2893 20.3452 28.3851 20.1375C29.4235 19.7134 30.5778 19.7312 31.604 20.1871C32.6302 20.6431 33.4481 21.5015 33.885 22.5811C34.057 23.7448 33.7875 24.9331 33.1349 25.8892C32.4823 26.8452 31.4989 27.4922 30.3973 27.6904C29.3623 28.1245 28.2068 28.1114 27.181 27.654C26.1551 27.1967 25.3416 26.3318 24.9165 25.2468V25.2468ZM36.0696 70.0592C35.032 70.494 33.8737 70.4815 32.8448 70.0244C31.8158 69.5672 30.9987 68.7021 30.5697 67.6156C30.4024 66.4556 30.6712 65.2726 31.319 64.3184C31.9668 63.3641 32.9425 62.714 34.0383 62.5063C35.0767 62.0822 36.231 62.1 37.2572 62.5559C38.2834 63.0119 39.1013 63.8703 39.5382 64.9499C39.709 66.1226 39.4318 67.3188 38.7673 68.2765C38.1028 69.2341 37.1051 69.8752 35.993 70.0592H36.0696ZM45.6513 48.9354C45.0596 50.5244 43.8953 51.8022 42.4127 52.4897C41.567 52.8826 40.654 53.0888 39.7298 53.0955C38.7241 53.1304 37.7296 52.8644 36.8613 52.3283C35.9931 51.7922 35.2868 51.0079 34.824 50.0663C34.5377 49.4395 34.378 48.7569 34.3549 48.0616C34.3318 47.3664 34.4459 46.6737 34.6898 46.0273C35.2816 44.4383 36.4458 43.1606 37.9285 42.473C39.2545 41.7484 40.7962 41.5961 42.2269 42.0484C43.6577 42.5008 44.8652 43.5222 45.5938 44.8964C45.8558 45.5374 45.991 46.228 45.991 46.926C45.991 47.624 45.8558 48.3146 45.5938 48.9556L45.6513 48.9354Z" fill="#24104A"/>
<path d="M49.6617 2.23217C49.2763 4.72266 70.9897 47.9384 80.7046 53.3511L88.9892 48.0739C77.595 24.7483 62.4658 14.5617 50.1645 0.00756944L49.6612 2.23123L49.6617 2.23217V2.23217ZM82.3277 56.0097C84.0372 69.4615 94.2559 63.6817 95.8382 77.0467C101.788 63.7304 97.6256 56.2321 90.6335 50.7374L82.327 56.0095L82.3277 56.0097Z" fill="#24104A"/>
</svg>
